<svg width="1440" height="6042" viewBox="0 0 1440 6042" fill="none" xmlns="http://www.w3.org/2000/svg">
<rect x="-14.2881" y="-239" width="1461.46" height="595.741" fill="#ABD8EC"/>
<g opacity="0.3">
<path d="M1075.62 256.648L764.23 144.556L703.285 163.594L636.945 190.869L613.774 192.58L428.084 256.648H1075.62Z" fill="#7C91C3"/>
<path d="M783.909 173.007L800.733 175.681C800.733 175.681 786.276 166.249 779.148 160.172C772.021 154.094 764.23 144.556 764.23 144.556L1075.62 256.648C1030.86 254.723 996.237 239.02 943.57 228.732C921.669 224.454 859.137 201.565 866.438 207.126C873.739 212.688 888.417 223.05 906.433 232.475C925.47 242.436 961.663 256.648 961.663 256.648H917.86C861.059 224.465 833.275 205.848 783.909 173.007Z" fill="url(#paint0_linear)"/>
</g>
<g opacity="0.8">
<path d="M828.416 247.641L888.445 184.807L900.194 195.479L912.983 210.768L917.45 211.727L953.248 247.641H828.416Z" fill="#7C91C3"/>
<path d="M884.652 200.755L881.408 202.254C881.408 202.254 884.195 196.967 885.569 193.56C886.944 190.153 888.445 184.807 888.445 184.807L828.416 247.641C837.044 246.562 843.719 237.759 853.872 231.992C858.094 229.594 870.149 216.763 868.742 219.881C867.334 222.999 864.504 228.807 861.031 234.091C857.361 239.674 850.384 247.641 850.384 247.641H858.828C869.779 229.6 875.135 219.164 884.652 200.755Z" fill="url(#paint1_linear)"/>
<path d="M900.662 280.729C911.868 263.518 917.075 253.567 923.226 234.932C923.226 234.932 921.445 256.516 917.981 260.39C914.517 264.264 900.662 280.729 900.662 280.729Z" fill="#AB95AE"/>
</g>
<g opacity="0.4">
<path d="M124.833 207.987L210.982 87.509L227.843 107.972L246.196 137.287L252.607 139.126L303.98 207.987H124.833Z" fill="#7C91C3"/>
<path d="M205.537 118.088L200.883 120.962C200.883 120.962 204.882 110.825 206.854 104.293C208.826 97.761 210.982 87.509 210.982 87.509L124.833 207.987C137.215 205.917 146.794 189.04 161.365 177.982C167.424 173.384 184.724 148.782 182.705 154.76C180.685 160.738 176.624 171.875 171.64 182.006C166.373 192.712 156.359 207.987 156.359 207.987H168.478C184.193 173.396 191.879 153.386 205.537 118.088Z" fill="url(#paint2_linear)"/>
<path d="M197.087 183.431C208.292 166.221 213.5 156.269 219.651 137.634C219.651 137.634 217.87 159.218 214.406 163.092C210.942 166.966 197.087 183.431 197.087 183.431Z" fill="#AB95AE"/>
</g>
<g opacity="0.2">
<path d="M1539 267.657L1362.37 100.52L1327.8 128.907L1290.17 169.575L1277.03 172.127L1171.7 267.657H1539Z" fill="#7C91C3"/>
<path d="M1373.54 142.942L1383.08 146.929C1383.08 146.929 1374.88 132.866 1370.83 123.804C1366.79 114.742 1362.37 100.52 1362.37 100.52L1539 267.657C1513.61 264.786 1493.97 241.372 1464.1 226.032C1451.68 219.653 1416.21 185.523 1420.35 193.817C1424.49 202.11 1432.82 217.559 1443.03 231.614C1453.83 246.466 1474.36 267.657 1474.36 267.657H1449.52C1417.3 219.669 1401.54 191.91 1373.54 142.942Z" fill="url(#paint3_linear)"/>
</g>
<g opacity="0.8">
<path d="M934.506 256.648L1060.94 129.543L1085.69 151.132L1112.63 182.059L1122.04 183.999L1197.44 256.648H934.506Z" fill="#7C91C3"/>
<path d="M1052.95 161.805L1046.12 164.837C1046.12 164.837 1051.99 154.142 1054.89 147.251C1057.78 140.359 1060.94 129.543 1060.94 129.543L934.506 256.648C952.679 254.465 966.738 236.659 988.123 224.993C997.016 220.142 1022.41 194.187 1019.44 200.494C1016.48 206.801 1010.52 218.55 1003.2 229.238C995.473 240.533 980.776 256.648 980.776 256.648H998.563C1021.63 220.154 1032.91 199.044 1052.95 161.805Z" fill="url(#paint4_linear)"/>
</g>
<g opacity="0.4">
<path d="M1153.68 206.607L1280.26 69.4941L1305.03 92.7824L1332 126.145L1341.42 128.238L1416.9 206.607H1153.68Z" fill="#7C91C3"/>
<path d="M1272.13 101.755L1265.3 104.787C1265.3 104.787 1271.17 94.0929 1274.06 87.2014C1276.96 80.31 1280.12 69.4941 1280.12 69.4941L1153.68 196.598C1171.86 194.415 1185.92 176.609 1207.3 164.944C1216.19 160.092 1241.58 134.138 1238.62 140.445C1235.66 146.751 1229.7 158.5 1222.38 169.189C1214.65 180.483 1199.95 196.598 1199.95 196.598H1217.74C1240.8 160.105 1252.09 138.995 1272.13 101.755Z" fill="url(#paint5_linear)"/>
</g>
<g opacity="0.3">
<path d="M174.875 228.874L453.535 118.534L508.074 137.275L567.442 164.123L588.178 165.808L754.351 228.874H174.875Z" fill="#7C91C3"/>
<path d="M435.923 146.54L420.868 149.173C420.868 149.173 433.806 139.889 440.184 133.906C446.563 127.924 453.535 118.534 453.535 118.534L174.875 228.874C214.927 226.979 245.912 211.521 293.043 201.394C312.643 197.183 368.602 174.652 362.068 180.127C355.535 185.602 342.399 195.801 326.277 205.079C309.241 214.884 276.851 228.874 276.851 228.874H316.051C366.882 197.194 391.746 178.868 435.923 146.54Z" fill="url(#paint6_linear)"/>
</g>
<g opacity="0.8">
<path opacity="0.8" d="M163.579 243.887L37.1404 133.547L12.394 152.288L-14.5435 179.136L-19.7854 182.087V243.887H163.579Z" fill="#7C91C3"/>
<path d="M45.1315 161.553L51.9625 164.185C51.9625 164.185 46.0923 154.901 43.1982 148.919C40.304 142.936 37.1404 133.547 37.1404 133.547L163.579 243.887C145.406 241.991 131.347 226.534 109.962 216.407C101.069 212.195 75.6778 189.664 78.6422 195.139C81.6066 200.614 87.567 210.813 94.882 220.092C102.612 229.897 117.308 243.887 117.308 243.887H99.522C76.4579 212.206 65.1764 193.88 45.1315 161.553Z" fill="url(#paint7_linear)"/>
</g>
<g style="mix-blend-mode:screen">
<path d="M915.486 140.543C541.315 224.49 285.547 76.9031 285.547 76.9031L1204.22 -0.572794L1373.36 -0.572823C1373.36 -0.572823 1289.66 56.5964 915.486 140.543Z" fill="url(#paint8_linear)"/>
</g>
<g style="mix-blend-mode:screen">
<path d="M482.13 189.083C856.302 273.029 1196.48 123.932 1196.48 123.932L277.802 46.4558L106.322 9.93541C106.322 9.93541 107.959 105.136 482.13 189.083Z" fill="url(#paint9_linear)"/>
</g>
<g style="mix-blend-mode:lighten">
<path d="M1066.61 20.444C1088.86 4.83681 1090.13 -0.573242 1090.13 -0.573242H1172.2C1172.2 -0.573242 1057.38 47.9712 992.551 69.4843C918.452 94.0723 817.407 113.02 817.407 113.02C817.407 113.02 992.584 72.3818 1066.61 20.444Z" fill="url(#paint10_linear)"/>
</g>
<g style="mix-blend-mode:lighten" opacity="0.7">
<path d="M1010.26 178.051C989.316 203.837 819.407 241.626 819.407 241.626C819.407 241.626 938.1 224.091 1010.26 203.837C1077.41 184.987 1114.81 172.452 1175.38 143.819C1254.9 106.225 1357.85 26.4495 1357.85 26.4495C1357.85 26.4495 1267.35 74.2002 1201.1 90.9137C1168.53 99.1307 1132.03 80.4846 1115.55 106.474C1112.4 111.441 1112.82 114.882 1109.57 119.811C1095.26 141.499 1059.26 139.433 1035.38 155.822C1017.7 167.957 1022.69 162.74 1010.26 178.051Z" fill="url(#paint11_linear)"/>
</g>
<path d="M379.548 30.4522C377.332 19.0574 373.505 12.2914 361.032 -0.573242H285.971C321.426 21.0595 342.016 32.1803 379.548 49.9683C437.503 77.4358 533.174 108.016 533.174 108.016C533.174 108.016 381.763 41.8471 379.548 30.4522Z" fill="url(#paint12_linear)"/>
<path opacity="0.7" d="M137.971 49.2265C107.472 28.2435 90.8096 5.43188 90.8096 5.43188C90.8096 5.43188 109.848 24.5834 137.971 49.2265C166.846 69.092 208.122 87.3184 259.401 82.9956C324.868 77.4768 338.773 122.319 338.773 122.319C338.773 122.319 401.176 119.227 410.033 155.458C416.88 183.466 508.679 207.07 555.898 216.368C575.258 219.274 585.771 220.623 582.68 220.609C579.78 220.595 569.76 219.098 555.898 216.368C495.193 207.257 347.501 182.833 259.401 137.101C217.192 115.189 171.229 78.3682 137.971 49.2265Z" fill="url(#paint13_linear)"/>
<rect x="-20.7266" y="900.177" width="1462.2" height="5146.23" fill="url(#paint14_linear)"/>
<path d="M51.7733 240.029C-13.1294 240.029 -14.8707 200.207 -20.2793 180.564V901.177H792.388H1441.42V210.029C1441.42 210.029 1357.05 171.963 1283.79 168.575C1165.38 163.1 1107.58 239.446 989.05 241.135C905.299 242.328 789.909 210.029 776.839 210.029C763.768 210.029 691.753 186.659 635.962 186.268C564.361 185.767 502.444 222.518 456.232 222.518C344.906 222.518 287.558 165.573 227.613 165.573C160.006 166.348 101.126 240.029 51.7733 240.029Z" fill="url(#paint15_linear)"/>
<path d="M-17.5 760C-17.5 760 -33.5894 804.092 -52.0309 862.478C-69.6207 1015.44 76.2955 1106 76.2955 1106C245.047 1229.96 1032.58 1368.22 1442.42 1368.22V1630.93C402.619 1507.33 -75.7186 1201.58 -101.795 1132.02C-117.916 1089.02 -81.8902 957.013 -52.0309 862.478C-48.3991 830.896 -37.7966 796.654 -17.5 760Z" fill="url(#paint16_linear)"/>
<path d="M442.419 278.562C320.933 272.716 320.78 346.615 199.22 342.615C150.257 341.004 74.868 326.101 74.868 326.101L-49.4844 309.588L511.976 245.535C511.976 245.535 544.949 244.331 566.021 245.535C590.558 246.937 623.789 251.898 642.988 255.548C647.032 256.472 651.057 257.466 655.094 258.535C675.087 263.828 695.363 270.957 719.647 280.564C752.607 293.604 771.422 307.311 798.21 322.176C804.653 325.75 811.556 329.392 819.228 333.107C900.847 372.632 855.257 428.651 814.724 453.171C774.191 477.691 624.819 528.372 582.534 533.237C540.249 538.102 270.588 556.99 118.153 663.844C16.0694 735.402 -6.39346 798.455 -6.39346 798.455C-197.165 986.363 -49.4844 516.758 -49.4844 516.758C-7.44984 503.212 32.9452 486.013 118.153 458.71C244.757 418.142 413.211 398.626 566.021 398.626C612.059 398.626 664.535 368.337 674.736 333.107C676.459 327.158 676.388 319.507 674.109 309.588C671.01 296.097 662.368 286.952 649.996 280.915C597.625 266.26 491.815 280.939 442.419 278.562Z" fill="url(#paint17_linear)"/>
<defs>
<linearGradient id="paint0_linear" x1="972.721" y1="256.648" x2="960.179" y2="125.706" gradientUnits="userSpaceOnUse">
<stop offset="0.619792" stop-color="#B5A2B8"/>
<stop offset="1" stop-color="white"/>
</linearGradient>
<linearGradient id="paint1_linear" x1="848.252" y1="247.641" x2="867.397" y2="178.899" gradientUnits="userSpaceOnUse">
<stop offset="0.619792" stop-color="#B5A2B8"/>
<stop offset="1" stop-color="white"/>
</linearGradient>
<linearGradient id="paint2_linear" x1="153.3" y1="207.987" x2="199.722" y2="83.2319" gradientUnits="userSpaceOnUse">
<stop offset="0.619792" stop-color="#B5A2B8"/>
<stop offset="1" stop-color="white"/>
</linearGradient>
<linearGradient id="paint3_linear" x1="1480.64" y1="267.657" x2="1433.98" y2="82.3682" gradientUnits="userSpaceOnUse">
<stop offset="0.619792" stop-color="#B5A2B8"/>
<stop offset="1" stop-color="white"/>
</linearGradient>
<linearGradient id="paint4_linear" x1="976.287" y1="256.648" x2="1013.69" y2="116.812" gradientUnits="userSpaceOnUse">
<stop offset="0.619792" stop-color="#B5A2B8"/>
<stop offset="1" stop-color="white"/>
</linearGradient>
<linearGradient id="paint5_linear" x1="1195.46" y1="196.598" x2="1232.87" y2="56.7624" gradientUnits="userSpaceOnUse">
<stop offset="0.619792" stop-color="#B5A2B8"/>
<stop offset="1" stop-color="white"/>
</linearGradient>
<linearGradient id="paint6_linear" x1="266.956" y1="228.874" x2="280.51" y2="100.225" gradientUnits="userSpaceOnUse">
<stop offset="0.619792" stop-color="#B5A2B8"/>
<stop offset="1" stop-color="white"/>
</linearGradient>
<linearGradient id="paint7_linear" x1="121.798" y1="243.887" x2="93.14" y2="120.464" gradientUnits="userSpaceOnUse">
<stop offset="0.619792" stop-color="#B5A2B8"/>
<stop offset="1" stop-color="white"/>
</linearGradient>
<linearGradient id="paint8_linear" x1="791.992" y1="-21.5398" x2="831.694" y2="182.71" gradientUnits="userSpaceOnUse">
<stop offset="0.46875" stop-color="#C4C4C4" stop-opacity="0"/>
<stop offset="1" stop-color="#D0D9E3"/>
</linearGradient>
<linearGradient id="paint9_linear" x1="690.034" y1="25.4888" x2="650.332" y2="229.739" gradientUnits="userSpaceOnUse">
<stop offset="0.46875" stop-color="#C4C4C4" stop-opacity="0"/>
<stop offset="1" stop-color="#D0D9E3"/>
</linearGradient>
<linearGradient id="paint10_linear" x1="1130.16" y1="4.9313" x2="837.924" y2="110.518" gradientUnits="userSpaceOnUse">
<stop stop-color="#E2EFF4"/>
<stop offset="1" stop-color="#EEF5F5"/>
</linearGradient>
<linearGradient id="paint11_linear" x1="1321.36" y1="39.3423" x2="921.174" y2="340.321" gradientUnits="userSpaceOnUse">
<stop stop-color="#B8DAEA"/>
<stop offset="1" stop-color="#F0E3E5"/>
</linearGradient>
<linearGradient id="paint12_linear" x1="285.971" y1="-0.573242" x2="518.161" y2="84.4966" gradientUnits="userSpaceOnUse">
<stop stop-color="#C2DEEE"/>
<stop offset="0.987296" stop-color="white"/>
</linearGradient>
<linearGradient id="paint13_linear" x1="90.8096" y1="5.43188" x2="512.405" y2="292.706" gradientUnits="userSpaceOnUse">
<stop offset="0.0153947" stop-color="#ACCFE4"/>
<stop offset="0.666667" stop-color="#E7E6F5"/>
</linearGradient>
<linearGradient id="paint14_linear" x1="710.374" y1="900.177" x2="710.374" y2="6046.4" gradientUnits="userSpaceOnUse">
<stop offset="0.161458" stop-color="#F6EDEC"/>
<stop offset="0.604167" stop-color="#E9DDDC"/>
<stop offset="0.859375" stop-color="#92CDE3"/>
<stop offset="1" stop-color="#91A6D7"/>
</linearGradient>
<linearGradient id="paint15_linear" x1="386.055" y1="182.087" x2="382.551" y2="813.605" gradientUnits="userSpaceOnUse">
<stop stop-color="#97ABDE"/>
<stop offset="0.354167" stop-color="#ECEAED"/>
<stop offset="1" stop-color="#F7EDED"/>
</linearGradient>
<linearGradient id="paint16_linear" x1="260.483" y1="12.4471" x2="259.482" y2="365.738" gradientUnits="userSpaceOnUse">
<stop stop-color="#A7AFD9" stop-opacity="0"/>
<stop offset="1" stop-color="white"/>
</linearGradient>
<linearGradient id="paint17_linear" x1="274.315" y1="13.81" x2="273.314" y2="367.1" gradientUnits="userSpaceOnUse">
<stop stop-color="#A7AFD9" stop-opacity="0"/>
<stop offset="1" stop-color="white"/>
</linearGradient>
</defs>
</svg>
