<svg width="1440" height="914" viewBox="0 0 1440 914" fill="none" xmlns="http://www.w3.org/2000/svg">
<path d="M1163 793H1106.09C1106.09 793 1102.86 788.405 1104.43 786.133C1106.16 783.619 1109.34 787.062 1112.25 786.133C1113.69 785.675 1111.89 782.512 1113.44 781.396C1115.02 780.254 1117.28 782.721 1118.42 781.87C1124.62 777.25 1126.2 765.166 1133.12 768.609C1138.11 771.088 1134.24 778.099 1138.34 781.87C1139.8 783.217 1141.86 782.122 1143.32 782.817C1144.9 783.57 1145.91 786.133 1148.06 786.133C1149.72 786.133 1151.5 778.258 1155.65 779.975C1159.95 781.759 1163 793 1163 793Z" fill="url(#paint0_linear)"/>
<path d="M1163 793H1106.09C1106.09 793 1102.86 788.405 1104.43 786.133C1106.16 783.619 1109.34 787.062 1112.25 786.133C1113.69 785.675 1111.89 782.512 1113.44 781.396C1115.02 780.254 1117.28 782.721 1118.42 781.87C1124.62 777.25 1126.2 765.166 1133.12 768.609C1138.11 771.088 1134.24 778.099 1138.34 781.87C1139.8 783.217 1141.86 782.122 1143.32 782.817C1144.9 783.57 1145.91 786.133 1148.06 786.133C1149.72 786.133 1151.5 778.258 1155.65 779.975C1159.95 781.759 1163 793 1163 793Z" fill="url(#paint1_linear)" fill-opacity="0.6"/>
<path d="M128 914H71.0891C71.0891 914 67.8624 909.405 69.4292 907.133C71.1624 904.619 74.3437 908.062 77.2545 907.133C78.6861 906.675 76.8923 903.512 78.4401 902.396C80.024 901.254 82.2773 903.721 83.4198 902.87C89.6211 898.25 91.1957 886.166 98.1218 889.609C103.11 892.088 99.2416 899.099 103.339 902.87C104.803 904.217 106.858 903.122 108.318 903.817C109.9 904.57 110.905 907.133 113.061 907.133C114.721 907.133 116.503 899.258 120.649 900.975C124.954 902.759 128 914 128 914Z" fill="url(#paint2_linear)"/>
<path d="M128 914H71.0891C71.0891 914 67.8624 909.405 69.4292 907.133C71.1624 904.619 74.3437 908.062 77.2545 907.133C78.6861 906.675 76.8923 903.512 78.4401 902.396C80.024 901.254 82.2773 903.721 83.4198 902.87C89.6211 898.25 91.1957 886.166 98.1218 889.609C103.11 892.088 99.2416 899.099 103.339 902.87C104.803 904.217 106.858 903.122 108.318 903.817C109.9 904.57 110.905 907.133 113.061 907.133C114.721 907.133 116.503 899.258 120.649 900.975C124.954 902.759 128 914 128 914Z" fill="url(#paint3_linear)" fill-opacity="0.6"/>
<path d="M867 374H810.089C810.089 374 806.862 369.405 808.429 367.133C810.162 364.619 813.344 368.062 816.254 367.133C817.686 366.675 815.892 363.512 817.44 362.396C819.024 361.254 821.277 363.721 822.42 362.87C828.621 358.25 830.196 346.166 837.122 349.609C842.11 352.088 838.242 359.099 842.339 362.87C843.803 364.217 845.858 363.122 847.318 363.817C848.9 364.57 849.905 367.133 852.061 367.133C853.721 367.133 855.503 359.258 859.649 360.975C863.954 362.759 867 374 867 374Z" fill="url(#paint4_linear)"/>
<path d="M867 374H810.089C810.089 374 806.862 369.405 808.429 367.133C810.162 364.619 813.344 368.062 816.254 367.133C817.686 366.675 815.892 363.512 817.44 362.396C819.024 361.254 821.277 363.721 822.42 362.87C828.621 358.25 830.196 346.166 837.122 349.609C842.11 352.088 838.242 359.099 842.339 362.87C843.803 364.217 845.858 363.122 847.318 363.817C848.9 364.57 849.905 367.133 852.061 367.133C853.721 367.133 855.503 359.258 859.649 360.975C863.954 362.759 867 374 867 374Z" fill="url(#paint5_linear)" fill-opacity="0.6"/>
<path d="M215 558H158.089C158.089 558 154.862 553.405 156.429 551.133C158.162 548.619 161.344 552.062 164.254 551.133C165.686 550.675 163.892 547.512 165.44 546.396C167.024 545.254 169.277 547.721 170.42 546.87C176.621 542.25 178.196 530.166 185.122 533.609C190.11 536.088 186.242 543.099 190.339 546.87C191.803 548.217 193.858 547.122 195.318 547.817C196.9 548.57 197.905 551.133 200.061 551.133C201.721 551.133 203.503 543.258 207.649 544.975C211.954 546.759 215 558 215 558Z" fill="url(#paint6_linear)"/>
<path d="M215 558H158.089C158.089 558 154.862 553.405 156.429 551.133C158.162 548.619 161.344 552.062 164.254 551.133C165.686 550.675 163.892 547.512 165.44 546.396C167.024 545.254 169.277 547.721 170.42 546.87C176.621 542.25 178.196 530.166 185.122 533.609C190.11 536.088 186.242 543.099 190.339 546.87C191.803 548.217 193.858 547.122 195.318 547.817C196.9 548.57 197.905 551.133 200.061 551.133C201.721 551.133 203.503 543.258 207.649 544.975C211.954 546.759 215 558 215 558Z" fill="url(#paint7_linear)" fill-opacity="0.6"/>
<g style="mix-blend-mode:multiply">
<path d="M188.46 139.052C194.853 136 207.811 130.755 214.499 128.489C228.574 123.721 230.999 120.71 244.624 119.551C282.847 116.301 277.776 128.489 277.776 128.489C277.776 128.489 259.002 135.043 246.574 137.427C224.246 141.711 167.822 148.908 188.46 139.052Z" fill="#E2EDEF"/>
</g>
<path d="M261.999 113H270.999V124.869C267.484 126.415 265.514 126.339 261.999 124.869V113Z" fill="#C18989"/>
<path d="M265.657 24.766C266.028 24.0342 267.073 24.0352 267.442 24.7677L287.401 64.3713C287.736 65.0363 287.253 65.8213 286.508 65.8213H282.131C281.351 65.8213 280.871 66.6744 281.276 67.3408L292.521 85.8377C292.926 86.5041 292.446 87.3571 291.667 87.3571H285.473C284.693 87.3571 284.213 88.2101 284.618 88.8765L297.202 109.585C297.578 110.203 297.188 111.003 296.471 111.095C273.323 114.063 259.682 114.035 236.529 111.093C235.812 111.002 235.421 110.201 235.797 109.584L248.38 88.8765C248.785 88.21 248.305 87.3571 247.526 87.3571H241.331C240.552 87.3571 240.072 86.5041 240.477 85.8377L251.722 67.3408C252.127 66.6744 251.647 65.8213 250.867 65.8213H246.494C245.748 65.8213 245.265 65.0347 245.602 64.3695L265.657 24.766Z" fill="#92B7D2"/>
<path d="M283.406 112.456C283.169 112.481 282.947 112.336 282.876 112.109L275.208 87.7023C275.143 87.496 275.219 87.2713 275.395 87.1456L280.013 83.8478C280.212 83.7054 280.279 83.4396 280.17 83.2198L271.757 66.1516C271.66 65.9548 271.703 65.7177 271.862 65.567L276.414 61.2675C276.547 61.1417 276.601 60.9531 276.554 60.776L267.777 27.6318C267.624 27.0511 268.437 26.7424 268.707 27.2788L287.765 65.0955C287.933 65.428 287.691 65.8205 287.319 65.8205H281.241C280.851 65.8205 280.611 66.247 280.814 66.5802L292.982 86.5966C293.185 86.9298 292.945 87.3564 292.555 87.3564H284.583C284.193 87.3564 283.953 87.7828 284.156 88.116L297.589 110.222C297.78 110.536 297.579 110.94 297.215 110.979L283.406 112.456Z" fill="#BFC2CE"/>
<g style="mix-blend-mode:multiply">
<path d="M1156.34 89.6983C1151.31 87.3821 1141.19 83.5014 1135.99 81.8795C1125.04 78.4664 1123.03 75.9877 1112.63 75.6671C1083.45 74.7675 1087.99 85.0342 1087.99 85.0342C1087.99 85.0342 1102.6 89.7544 1112.16 91.1929C1129.34 93.7772 1172.55 97.1752 1156.34 89.6983Z" fill="#E2EDEF"/>
</g>
<path d="M1104.57 71.4286H1097.43V80.8486C1100.22 82.075 1101.78 82.015 1104.57 80.8486V71.4286Z" fill="#C18989"/>
<path d="M1101.41 0.882982C1101.22 0.517102 1100.7 0.51761 1100.51 0.88385L1084.2 33.2601C1084.03 33.5927 1084.27 33.9852 1084.64 33.9852H1089.12C1089.51 33.9852 1089.75 34.4117 1089.54 34.7449L1080.08 50.3174C1079.87 50.6506 1080.11 51.0771 1080.5 51.0771H1086.46C1086.85 51.0771 1087.09 51.5036 1086.89 51.8368L1076.4 69.1036C1076.21 69.4123 1076.41 69.8126 1076.77 69.859C1095.56 72.2917 1106.44 72.2687 1125.23 69.8582C1125.59 69.8122 1125.79 69.4116 1125.6 69.1027L1115.11 51.8368C1114.91 51.5036 1115.15 51.0771 1115.54 51.0771H1121.5C1121.89 51.0771 1122.13 50.6506 1121.92 50.3174L1112.46 34.7449C1112.25 34.4117 1112.49 33.9852 1112.88 33.9852H1117.35C1117.73 33.9852 1117.97 33.5919 1117.8 33.2593L1101.41 0.882982Z" fill="#92B7D2"/>
<path d="M1087.5 70.9879C1087.73 71.0133 1087.96 70.8679 1088.03 70.6406L1094.06 51.4225C1094.13 51.2161 1094.05 50.9914 1093.88 50.8657L1090.35 48.3428C1090.15 48.2005 1090.08 47.9346 1090.19 47.7149L1096.79 34.3156C1096.89 34.1188 1096.85 33.8817 1096.69 33.7311L1093.17 30.4131C1093.04 30.2873 1092.99 30.0988 1093.03 29.9217L1099.73 4.6318C1099.89 4.0511 1099.07 3.74235 1098.8 4.2788L1084.2 33.2595C1084.03 33.592 1084.27 33.9845 1084.64 33.9845H1089.12C1089.51 33.9845 1089.75 34.411 1089.54 34.7443L1080.08 50.3167C1079.87 50.6499 1080.11 51.0765 1080.5 51.0765H1086.46C1086.85 51.0765 1087.09 51.5029 1086.89 51.8361L1076.41 69.0853C1076.22 69.3985 1076.42 69.8032 1076.78 69.8421L1087.5 70.9879Z" fill="#BFC2CE"/>
<g style="mix-blend-mode:multiply">
<path d="M83.4992 167C79.9607 164.22 89.999 158 98.999 155C106.499 152.5 126.213 143.709 139.884 144.009C178.236 144.852 174.499 155 174.499 155C174.499 155 152.496 163.954 139.884 165C117.227 166.88 90.4992 172.5 83.4992 167Z" fill="#E2E9F2"/>
</g>
<path d="M151.67 77.6089C152.05 76.9143 153.048 76.9154 153.426 77.6107L172.641 112.929C173.003 113.595 172.521 114.407 171.762 114.407H167.765C166.97 114.407 166.493 115.29 166.929 115.955L177.573 132.174C178.009 132.839 177.532 133.722 176.737 133.722H171.001C170.205 133.722 169.728 134.606 170.165 135.271L182.116 153.488C182.522 154.108 182.131 154.941 181.394 155.028C159.099 157.67 145.906 157.645 123.606 155.026C122.869 154.94 122.477 154.107 122.884 153.487L134.833 135.271C135.27 134.606 134.793 133.722 133.997 133.722H128.261C127.466 133.722 126.989 132.839 127.425 132.174L138.069 115.955C138.505 115.29 138.028 114.407 137.233 114.407H133.24C132.48 114.407 131.998 113.593 132.362 112.927L151.67 77.6089Z" fill="#92B7D2"/>
<path d="M169.266 156.195C168.803 156.241 168.37 155.961 168.22 155.521L161.075 134.452C160.929 134.022 161.091 133.547 161.47 133.296L165.161 130.855C165.591 130.571 165.734 130.006 165.492 129.551L157.805 115.106C157.587 114.696 157.68 114.19 158.03 113.884L161.832 110.557C162.123 110.302 162.241 109.902 162.135 109.53L155.04 84.7125C154.712 83.5642 156.31 82.9106 156.88 83.9597L172.641 112.928C173.003 113.594 172.521 114.406 171.762 114.406H167.765C166.97 114.406 166.493 115.29 166.929 115.955L177.573 132.173C178.009 132.838 177.532 133.722 176.737 133.722H171.001C170.205 133.722 169.728 134.605 170.165 135.27L182.093 153.453C182.505 154.082 182.103 154.923 181.356 154.997L169.266 156.195Z" fill="#92B7D2"/>
<g style="mix-blend-mode:multiply">
<path d="M1468.58 184.926C1462.02 181.794 1448.73 176.415 1441.87 174.092C1427.43 169.202 1424.95 166.112 1410.97 164.924C1371.77 161.591 1376.97 174.092 1376.97 174.092C1376.97 174.092 1396.23 180.813 1408.97 183.259C1431.87 187.653 1489.75 195.034 1468.58 184.926Z" fill="#E2E3EF"/>
</g>
<g style="mix-blend-mode:multiply">
<path d="M1399.17 143.913C1393.09 139.518 1390.71 139.976 1382.27 135.766C1368.42 128.866 1358.7 127.418 1344.31 126.735C1303.93 124.819 1309.29 132.006 1309.29 132.006C1309.29 132.006 1342.18 148.86 1355.31 150.267C1374.62 152.335 1418.56 157.912 1399.17 143.913Z" fill="#E2E3EF"/>
</g>
<path d="M1384.95 156.154H1394.18V167.391C1390.57 168.854 1388.55 168.782 1384.95 167.391V156.154Z" fill="#C18989"/>
<path d="M1389.2 65.9646C1389.55 65.1614 1390.69 65.1624 1391.04 65.9663L1408.49 106.369C1408.78 107.029 1408.29 107.765 1407.57 107.765H1403.9C1403.15 107.765 1402.67 108.562 1403.02 109.228L1413 128.391C1413.35 129.057 1412.87 129.854 1412.12 129.854H1406.84C1406.09 129.854 1405.61 130.65 1405.95 131.315L1417.12 152.758C1417.44 153.366 1417.06 154.105 1416.38 154.207C1396.06 157.251 1384.1 157.134 1363.78 154.2C1363.1 154.102 1362.72 153.36 1363.03 152.751L1374.2 131.315C1374.54 130.65 1374.06 129.854 1373.31 129.854H1368.04C1367.29 129.854 1366.8 129.057 1367.15 128.391L1377.14 109.228C1377.48 108.562 1377 107.765 1376.25 107.765H1372.58C1371.86 107.765 1371.38 107.028 1371.67 106.367L1389.2 65.9646Z" fill="#71BFD8"/>
<path d="M1404.3 155.539C1403.79 155.597 1403.32 155.263 1403.21 154.764L1397.77 130.449C1397.69 130.083 1397.82 129.702 1398.11 129.462L1401.69 126.476C1402.03 126.194 1402.14 125.724 1401.97 125.318L1394.8 108.353C1394.65 107.994 1394.72 107.58 1394.98 107.292L1398.63 103.271C1398.85 103.029 1398.94 102.696 1398.87 102.378L1392.51 74.3836C1392.24 73.1981 1393.92 72.6497 1394.41 73.7657L1408.49 106.368C1408.78 107.028 1408.29 107.765 1407.57 107.765H1403.9C1403.15 107.765 1402.67 108.561 1403.02 109.227L1413 128.391C1413.35 129.056 1412.87 129.853 1412.12 129.853H1406.84C1406.09 129.853 1405.61 130.649 1405.95 131.315L1417.1 152.706C1417.42 153.328 1417.02 154.081 1416.32 154.161L1404.3 155.539Z" fill="url(#paint8_linear)"/>
<path d="M1333.8 32.4432C1334.13 31.5861 1335.34 31.5871 1335.67 32.4447L1353.19 78.4005C1353.44 79.055 1352.96 79.7567 1352.26 79.7567H1348.43C1347.7 79.7567 1347.22 80.5121 1347.52 81.1746L1357.73 103.363C1358.03 104.025 1357.55 104.781 1356.82 104.781H1351.37C1350.64 104.781 1350.16 105.536 1350.46 106.198L1361.84 130.952C1362.12 131.549 1361.75 132.244 1361.1 132.354C1340.69 135.825 1328.71 135.692 1308.3 132.347C1307.65 132.241 1307.27 131.543 1307.55 130.944L1318.92 106.198C1319.23 105.536 1318.74 104.781 1318.01 104.781H1312.56C1311.84 104.781 1311.35 104.025 1311.66 103.363L1321.86 81.1746C1322.17 80.5121 1321.68 79.7567 1320.95 79.7567H1317.13C1316.43 79.7567 1315.94 79.0538 1316.19 78.399L1333.8 32.4432Z" fill="#71BFD8"/>
<path d="M1348.95 133.875C1348.43 133.943 1347.95 133.594 1347.84 133.077L1342.36 105.322C1342.29 104.984 1342.4 104.636 1342.65 104.401L1346.39 100.871C1346.69 100.595 1346.78 100.171 1346.64 99.7946L1339.37 80.2875C1339.25 79.9577 1339.31 79.5876 1339.53 79.3129L1343.31 74.5924C1343.49 74.3615 1343.56 74.0607 1343.51 73.7707L1337.09 41.7474C1336.85 40.5447 1338.57 40.0485 1339.01 41.1947L1353.19 78.3995C1353.44 79.0541 1352.96 79.7558 1352.26 79.7558H1348.43C1347.7 79.7558 1347.22 80.5112 1347.52 81.1737L1357.73 103.362C1358.03 104.024 1357.55 104.78 1356.82 104.78H1351.37C1350.64 104.78 1350.16 105.535 1350.46 106.197L1361.82 130.897C1362.1 131.509 1361.7 132.219 1361.04 132.306L1348.95 133.875Z" fill="url(#paint9_linear)"/>
<g style="mix-blend-mode:multiply">
<path d="M1608.75 494C1648.48 494 1581.72 428.398 1548.44 418.406C1442.79 386.692 1477.87 390.803 1407.81 386.692C1211.28 375.16 1237.35 418.406 1237.35 418.406C1237.35 418.406 1299.93 460.388 1363.83 468.849C1478.63 484.049 1582.66 494 1608.75 494Z" fill="#E2E3EF" fill-opacity="0.6"/>
</g>
<path d="M1270.83 373.467H1296.37V397.465C1286.4 400.59 1280.81 400.437 1270.83 397.465V373.467Z" fill="#DD9E9E"/>
<path d="M1281.89 101.204C1282.58 99.5771 1284.89 99.5791 1285.57 101.207L1338.47 226.511C1339.02 227.83 1338.06 229.289 1336.63 229.289H1322.75C1321.26 229.289 1320.29 230.866 1320.97 232.197L1351.92 292.987C1352.6 294.318 1351.63 295.895 1350.14 295.895H1331.41C1329.92 295.895 1328.95 297.471 1329.63 298.802L1363.95 366.229C1364.56 367.444 1363.79 368.911 1362.44 369.113C1300.53 378.393 1265.1 378.154 1204.76 369.112C1203.41 368.91 1202.64 367.443 1203.26 366.228L1237.58 298.802C1238.25 297.471 1237.29 295.895 1235.79 295.895H1217.06C1215.57 295.895 1214.6 294.318 1215.28 292.987L1246.23 232.197C1246.91 230.866 1245.94 229.289 1244.45 229.289H1230.58C1229.15 229.289 1228.18 227.827 1228.74 226.508L1281.89 101.204Z" fill="#71BFD8"/>
<path d="M1328.99 373.123C1328.5 373.183 1328.05 372.879 1327.91 372.407L1306.06 296.511C1305.95 296.134 1306.07 295.728 1306.37 295.474L1318.95 284.749C1319.28 284.468 1319.39 284.006 1319.23 283.606L1297.04 229.864C1296.89 229.511 1296.96 229.105 1297.21 228.819L1309.51 214.956C1309.72 214.716 1309.81 214.389 1309.74 214.076L1286.12 107.601C1285.86 106.412 1287.54 105.874 1288.02 106.996L1339.05 227.898C1339.33 228.557 1338.85 229.287 1338.13 229.287H1321.12C1320.37 229.287 1319.89 230.075 1320.23 230.74L1352.66 294.438C1353 295.104 1352.52 295.892 1351.77 295.892H1329.78C1329.03 295.892 1328.55 296.68 1328.89 297.346L1364.55 367.421C1364.87 368.039 1364.47 368.782 1363.78 368.867L1328.99 373.123Z" fill="url(#paint10_linear)"/>
<path d="M1353 748.638C1353 748.708 1353 748.778 1352.99 748.847C1352.98 748.884 1353 748.921 1353 748.957C1353 749.311 1350.21 749.597 1346.77 749.597C1343.32 749.597 1340.53 749.311 1340.53 748.957C1340.53 748.921 1340.55 748.884 1340.54 748.847C1340.54 748.778 1340.53 748.708 1340.53 748.638C1340.53 746.872 1343.32 745.44 1346.77 745.44C1350.21 745.44 1353 746.872 1353 748.638Z" fill="#E4C7C7"/>
<path d="M1317.67 752.269C1317.67 752.53 1317.65 752.79 1317.62 753.047C1317.61 753.183 1317.67 753.319 1317.67 753.457C1317.67 754.769 1308.36 755.832 1296.88 755.832C1285.41 755.832 1276.1 754.769 1276.1 753.457C1276.1 753.319 1276.16 753.183 1276.14 753.047C1276.11 752.789 1276.1 752.53 1276.1 752.269C1276.1 745.71 1285.41 740.392 1296.88 740.392C1308.36 740.392 1317.67 745.71 1317.67 752.269Z" fill="#E4C7C7"/>
<path d="M1338.45 745.668C1338.45 745.739 1338.45 745.808 1338.44 745.878C1338.44 745.914 1338.45 745.951 1338.45 745.988C1338.45 746.341 1336.59 746.628 1334.3 746.628C1332 746.628 1330.14 746.341 1330.14 745.988C1330.14 745.951 1330.15 745.914 1330.15 745.878C1330.14 745.808 1330.14 745.739 1330.14 745.668C1330.14 743.902 1332 742.471 1334.3 742.471C1336.59 742.471 1338.45 743.902 1338.45 745.668Z" fill="#E4C7C7"/>
<path d="M1276.1 758.139C1276.1 758.209 1276.1 758.279 1276.09 758.348C1276.08 758.385 1276.1 758.422 1276.1 758.459C1276.1 758.812 1273.31 759.098 1269.87 759.098C1266.42 759.098 1263.63 758.812 1263.63 758.459C1263.63 758.422 1263.65 758.385 1263.64 758.348C1263.63 758.279 1263.63 758.209 1263.63 758.139C1263.63 756.373 1266.42 754.941 1269.87 754.941C1273.31 754.941 1276.1 756.373 1276.1 758.139Z" fill="#E4C7C7"/>
<path d="M1257.39 733.198C1257.39 733.268 1257.39 733.338 1257.39 733.407C1257.38 733.444 1257.39 733.48 1257.39 733.517C1257.39 733.871 1255.53 734.157 1253.24 734.157C1250.94 734.157 1249.08 733.871 1249.08 733.517C1249.08 733.48 1249.09 733.444 1249.09 733.407C1249.08 733.338 1249.08 733.268 1249.08 733.198C1249.08 731.432 1250.94 730 1253.24 730C1255.53 730 1257.39 731.432 1257.39 733.198Z" fill="#E4C7C7"/>
<path d="M1282.34 764.374C1282.34 764.444 1282.33 764.514 1282.33 764.583C1282.32 764.62 1282.34 764.657 1282.34 764.694C1282.34 765.047 1280.47 765.333 1278.18 765.333C1275.88 765.333 1274.02 765.047 1274.02 764.694C1274.02 764.657 1274.03 764.62 1274.03 764.583C1274.02 764.514 1274.02 764.444 1274.02 764.374C1274.02 762.608 1275.88 761.177 1278.18 761.177C1280.47 761.177 1282.34 762.608 1282.34 764.374Z" fill="#E4C7C7"/>
<path d="M1334.3 766.453C1334.3 766.523 1334.29 766.593 1334.28 766.662C1334.28 766.699 1334.3 766.735 1334.3 766.772C1334.3 767.125 1331.5 767.412 1328.06 767.412C1324.62 767.412 1321.83 767.125 1321.83 766.772C1321.83 766.735 1321.84 766.699 1321.84 766.662C1321.83 766.593 1321.83 766.523 1321.83 766.453C1321.83 764.687 1324.62 763.255 1328.06 763.255C1331.5 763.255 1334.3 764.687 1334.3 766.453Z" fill="#E4C7C7"/>
<path d="M1269.86 765.973C1269.86 766.078 1269.86 766.183 1269.84 766.287C1269.83 766.342 1269.86 766.397 1269.86 766.453C1269.86 766.982 1264.75 767.412 1258.43 767.412C1252.12 767.412 1247 766.982 1247 766.453C1247 766.397 1247.03 766.342 1247.03 766.287C1247.01 766.183 1247 766.078 1247 765.973C1247 763.324 1252.12 761.177 1258.43 761.177C1264.75 761.177 1269.86 763.324 1269.86 765.973Z" fill="#E4C7C7"/>
<path d="M1325.98 736.395C1325.98 736.536 1325.98 736.676 1325.96 736.814C1325.96 736.887 1325.98 736.961 1325.98 737.035C1325.98 737.741 1322.26 738.314 1317.67 738.314C1313.08 738.314 1309.35 737.741 1309.35 737.035C1309.35 736.961 1309.38 736.887 1309.37 736.814C1309.36 736.676 1309.35 736.536 1309.35 736.395C1309.35 732.863 1313.08 730 1317.67 730C1322.26 730 1325.98 732.863 1325.98 736.395Z" fill="#E4C7C7"/>
<path d="M32.0001 609.638C32.0001 609.708 32.0045 609.778 32.0133 609.847C32.0179 609.884 32.0001 609.92 32.0001 609.957C32.0001 610.311 34.7918 610.597 38.2354 610.597C41.6791 610.597 44.4707 610.311 44.4707 609.957C44.4707 609.92 44.4529 609.884 44.4576 609.847C44.4663 609.778 44.4707 609.708 44.4707 609.638C44.4707 607.872 41.6791 606.44 38.2354 606.44C34.7918 606.44 32.0001 607.872 32.0001 609.638Z" fill="#E4C7C7"/>
<path d="M46.5496 606.668C46.5496 606.739 46.5525 606.808 46.5583 606.878C46.5614 606.914 46.5496 606.951 46.5496 606.988C46.5496 607.341 48.4106 607.627 50.7064 607.627C53.0022 607.627 54.8633 607.341 54.8633 606.988C54.8633 606.951 54.8514 606.914 54.8545 606.878C54.8603 606.808 54.8633 606.739 54.8633 606.668C54.8633 604.902 53.0022 603.471 50.7064 603.471C48.4106 603.471 46.5496 604.902 46.5496 606.668Z" fill="#E4C7C7"/>
<path d="M108.902 619.139C108.902 619.209 108.907 619.279 108.916 619.348C108.92 619.385 108.902 619.422 108.902 619.459C108.902 619.812 111.694 620.098 115.138 620.098C118.581 620.098 121.373 619.812 121.373 619.459C121.373 619.422 121.355 619.385 121.36 619.348C121.369 619.279 121.373 619.209 121.373 619.139C121.373 617.373 118.581 615.941 115.138 615.941C111.694 615.941 108.902 617.373 108.902 619.139Z" fill="#E4C7C7"/>
<path d="M127.608 594.198C127.608 594.268 127.611 594.338 127.617 594.407C127.62 594.444 127.608 594.48 127.608 594.517C127.608 594.871 129.469 595.157 131.765 595.157C134.061 595.157 135.922 594.871 135.922 594.517C135.922 594.48 135.91 594.444 135.913 594.407C135.919 594.338 135.922 594.268 135.922 594.198C135.922 592.432 134.061 591 131.765 591C129.469 591 127.608 592.432 127.608 594.198Z" fill="#E4C7C7"/>
<path d="M102.667 625.374C102.667 625.444 102.67 625.514 102.676 625.583C102.679 625.62 102.667 625.657 102.667 625.694C102.667 626.047 104.528 626.333 106.824 626.333C109.119 626.333 110.98 626.047 110.98 625.694C110.98 625.657 110.969 625.62 110.972 625.583C110.978 625.514 110.98 625.444 110.98 625.374C110.98 623.608 109.119 622.176 106.824 622.176C104.528 622.176 102.667 623.608 102.667 625.374Z" fill="#E4C7C7"/>
<path d="M50.7052 627.452C50.7052 627.523 50.7096 627.593 50.7183 627.662C50.723 627.699 50.7052 627.735 50.7052 627.772C50.7052 628.125 53.4968 628.412 56.9405 628.412C60.3841 628.412 63.1758 628.125 63.1758 627.772C63.1758 627.735 63.158 627.699 63.1626 627.662C63.1714 627.593 63.1758 627.523 63.1758 627.452C63.1758 625.686 60.3841 624.255 56.9405 624.255C53.4968 624.255 50.7052 625.686 50.7052 627.452Z" fill="#E4C7C7"/>
<path d="M115.137 626.973C115.137 627.078 115.145 627.183 115.161 627.287C115.17 627.342 115.137 627.397 115.137 627.452C115.137 627.982 120.255 628.412 126.569 628.412C132.882 628.412 138 627.982 138 627.452C138 627.397 137.967 627.342 137.976 627.287C137.992 627.183 138 627.078 138 626.973C138 624.324 132.882 622.176 126.569 622.176C120.255 622.176 115.137 624.324 115.137 626.973Z" fill="#E4C7C7"/>
<path d="M59.019 597.395C59.019 597.536 59.0249 597.675 59.0366 597.814C59.0427 597.887 59.019 597.961 59.019 598.035C59.019 598.741 62.7412 599.314 67.3328 599.314C71.9243 599.314 75.6465 598.741 75.6465 598.035C75.6465 597.961 75.6228 597.887 75.6289 597.814C75.6406 597.675 75.6465 597.536 75.6465 597.395C75.6465 593.863 71.9243 591 67.3328 591C62.7412 591 59.019 593.863 59.019 597.395Z" fill="#E4C7C7"/>
<path d="M-3.50045 459C19.9992 473.5 56.9999 480.977 70.5 473C105.5 452.318 145.317 432.5 182.817 407.999L18.1452 405.746C18.1452 405.746 9.31688 411.5 -7.35482 432.5C-24.0265 453.501 -12.6457 453.357 -3.50045 459Z" fill="#E6DDE3"/>
<path d="M182.105 406.196L127.477 315.474C127.288 315.16 126.996 314.921 126.65 314.797L99.7186 305.179C99.3937 305.063 99.0399 305.056 98.7106 305.159L67.8675 314.797C67.4754 314.92 67.146 315.189 66.9485 315.549L17.2195 406.232C16.7474 407.093 17.1615 408.171 18.0883 408.495L98.6972 436.66C99.0345 436.777 99.4017 436.778 99.7395 436.662L181.263 408.517C182.218 408.187 182.626 407.061 182.105 406.196Z" fill="url(#paint11_linear)"/>
<path d="M98.2188 436.842V322.978L67.2559 314.988L16.3171 407.876L98.2188 436.842Z" fill="url(#paint12_linear)"/>
<path d="M90.9748 339.703L74.0849 333.592L35.3789 399.449L90.9748 417.78V403.523L52.2688 392.66L62.825 374.328L82.2383 379.965V367.744L68.4549 363.465L79.0111 346.492L90.9748 350.566V339.703Z" fill="#B76767"/>
<path d="M129.351 332.594L109.817 338L111.195 419.165L166.68 399.236L159.036 387.2L124.444 399.236L123.528 378.102L142.059 372.306L135.507 361.99L122.457 365.914L122.268 345.926L134.117 342.517L129.351 332.594Z" fill="#D28989"/>
<defs>
<linearGradient id="paint0_linear" x1="1123.44" y1="776.525" x2="1162.79" y2="793.14" gradientUnits="userSpaceOnUse">
<stop offset="0.11184" stop-color="#7FA8C6"/>
<stop offset="1" stop-color="#6C96B2"/>
</linearGradient>
<linearGradient id="paint1_linear" x1="1125.34" y1="777.472" x2="1143.11" y2="791.467" gradientUnits="userSpaceOnUse">
<stop stop-color="white" stop-opacity="0.54"/>
<stop offset="1" stop-color="white" stop-opacity="0"/>
</linearGradient>
<linearGradient id="paint2_linear" x1="88.4445" y1="897.525" x2="127.792" y2="914.14" gradientUnits="userSpaceOnUse">
<stop offset="0.11184" stop-color="#7FA8C6"/>
<stop offset="1" stop-color="#6C96B2"/>
</linearGradient>
<linearGradient id="paint3_linear" x1="90.3416" y1="898.472" x2="108.108" y2="912.467" gradientUnits="userSpaceOnUse">
<stop stop-color="white" stop-opacity="0.54"/>
<stop offset="1" stop-color="white" stop-opacity="0"/>
</linearGradient>
<linearGradient id="paint4_linear" x1="827.445" y1="357.525" x2="866.792" y2="374.14" gradientUnits="userSpaceOnUse">
<stop offset="0.11184" stop-color="#7FA8C6"/>
<stop offset="1" stop-color="#6C96B2"/>
</linearGradient>
<linearGradient id="paint5_linear" x1="829.342" y1="358.472" x2="847.108" y2="372.467" gradientUnits="userSpaceOnUse">
<stop stop-color="white" stop-opacity="0.54"/>
<stop offset="1" stop-color="white" stop-opacity="0"/>
</linearGradient>
<linearGradient id="paint6_linear" x1="175.445" y1="541.525" x2="214.792" y2="558.14" gradientUnits="userSpaceOnUse">
<stop offset="0.11184" stop-color="#7FA8C6"/>
<stop offset="1" stop-color="#6C96B2"/>
</linearGradient>
<linearGradient id="paint7_linear" x1="177.342" y1="542.472" x2="195.108" y2="556.467" gradientUnits="userSpaceOnUse">
<stop stop-color="white" stop-opacity="0.54"/>
<stop offset="1" stop-color="white" stop-opacity="0"/>
</linearGradient>
<linearGradient id="paint8_linear" x1="1435.2" y1="155.641" x2="1435.2" y2="63.8462" gradientUnits="userSpaceOnUse">
<stop stop-color="#6975A5"/>
<stop offset="1" stop-color="#6975A5" stop-opacity="0"/>
</linearGradient>
<linearGradient id="paint9_linear" x1="1287" y1="133.59" x2="1287" y2="30" gradientUnits="userSpaceOnUse">
<stop stop-color="#6975A5"/>
<stop offset="1" stop-color="#6975A5" stop-opacity="0"/>
</linearGradient>
<linearGradient id="paint10_linear" x1="1340.19" y1="393.762" x2="1308.96" y2="96.8526" gradientUnits="userSpaceOnUse">
<stop stop-color="#6A7FAC"/>
<stop offset="1" stop-color="#6FADCC"/>
</linearGradient>
<linearGradient id="paint11_linear" x1="99.7174" y1="338.959" x2="99.7174" y2="437.84" gradientUnits="userSpaceOnUse">
<stop stop-color="#FFF6F5"/>
<stop offset="1" stop-color="#FFCEC9"/>
</linearGradient>
<linearGradient id="paint12_linear" x1="57.2679" y1="314.988" x2="126.185" y2="305.999" gradientUnits="userSpaceOnUse">
<stop stop-color="#FDD1CD"/>
<stop offset="1" stop-color="#FFE5E2" stop-opacity="0"/>
</linearGradient>
</defs>
</svg>