<?xml version="1.0" encoding="utf-8"?>
<!-- Generator: Adobe Illustrator 23.0.2, SVG Export Plug-In . SVG Version: 6.00 Build 0)  -->
<svg version="1.1" id="Layer_1" xmlns="http://www.w3.org/2000/svg" xmlns:xlink="http://www.w3.org/1999/xlink" x="0px" y="0px"
	 viewBox="0 0 1440 864" style="enable-background:new 0 0 1440 864;" xml:space="preserve">
<style type="text/css">
	.st0{clip-path:url(#SVGID_2_);}
	.st1{fill:#ABD8EC;}
	.st2{opacity:0.3;}
	.st3{fill:#7C91C3;}
	.st4{fill:url(#SVGID_3_);}
	.st5{opacity:0.8;}
	.st6{fill:url(#SVGID_4_);}
	.st7{fill:#AB95AE;}
	.st8{opacity:0.4;}
	.st9{fill:url(#SVGID_5_);}
	.st10{opacity:0.2;}
	.st11{fill:url(#SVGID_6_);}
	.st12{fill:url(#SVGID_7_);}
	.st13{fill:url(#SVGID_8_);}
	.st14{fill:url(#SVGID_9_);}
	.st15{opacity:0.8;fill:#7C91C3;enable-background:new    ;}
	.st16{fill:url(#SVGID_10_);}
	.st17{fill:url(#SVGID_11_);}
	.st18{fill:url(#SVGID_12_);}
	.st19{fill:url(#SVGID_13_);}
	.st20{opacity:0.7;}
	.st21{fill:url(#SVGID_14_);}
	.st22{fill:url(#SVGID_15_);}
	.st23{opacity:0.7;fill:url(#SVGID_16_);enable-background:new    ;}
	.st24{fill:url(#SVGID_17_);}
	.st25{fill:url(#SVGID_18_);}
	.st26{fill:url(#SVGID_19_);}
	.st27{fill:url(#SVGID_20_);}
	.st28{fill:url(#SVGID_21_);fill-opacity:0.6;}
	.st29{fill:url(#SVGID_22_);}
	.st30{fill:url(#SVGID_23_);fill-opacity:0.6;}
	.st31{fill:url(#SVGID_24_);}
	.st32{fill:url(#SVGID_25_);fill-opacity:0.6;}
	.st33{fill:url(#SVGID_26_);}
	.st34{fill:url(#SVGID_27_);fill-opacity:0.6;}
	.st35{fill:#E2EDEF;}
	.st36{fill:#C18989;}
	.st37{fill:#78AFC9;}
	.st38{fill:#BFC2CE;}
	.st39{fill:url(#SVGID_28_);}
	.st40{fill:#CAD1DD;}
	.st41{fill:#92B7D2;}
	.st42{fill:#DFD9D3;}
	.st43{fill:#DDDFEE;}
	.st44{fill:url(#SVGID_29_);}
	.st45{fill:url(#SVGID_30_);fill-opacity:0.5;}
	.st46{fill:url(#SVGID_31_);}
	.st47{fill:#71BFD8;}
	.st48{fill:#D3D4D9;}
	.st49{fill:#E2E9F2;}
	.st50{fill:#6FAECC;}
	.st51{fill:#E2E3EF;}
	.st52{fill:url(#SVGID_32_);fill-opacity:0.5;}
	.st53{fill:url(#SVGID_33_);}
	.st54{fill:url(#SVGID_34_);}
	.st55{fill:#E2E3EF;fill-opacity:0.6;}
	.st56{fill:#DD9E9E;}
	.st57{fill:url(#SVGID_35_);}
	.st58{fill:#F2EDF4;}
	.st59{fill:url(#SVGID_36_);}
	.st60{fill:url(#SVGID_37_);}
	.st61{fill:#FFFFFF;}
	.st62{fill:none;stroke:#E4C99B;stroke-width:1.322;}
	.st63{fill:none;stroke:#E4C99B;stroke-width:1.7627;}
	.st64{fill:#B58349;}
	.st65{fill:#E4C7C7;}
	.st66{fill:#E8DADA;}
	.st67{fill:#E1CDE1;}
	.st68{fill:#FFE0CA;fill-opacity:0.2;}
	.st69{fill:#FFE2B6;fill-opacity:0.67;}
	.st70{fill:#FFF0D9;fill-opacity:0.8;}
	.st71{fill:none;stroke:url(#SVGID_38_);stroke-width:5;}
	.st72{fill:none;stroke:url(#SVGID_39_);stroke-width:5;}
	.st73{fill:url(#SVGID_40_);fill-opacity:0.5;}
	.st74{fill:url(#SVGID_41_);}
	.st75{fill:url(#SVGID_42_);}
	.st76{fill:url(#SVGID_43_);}
	.st77{fill:url(#SVGID_44_);}
	.st78{fill:url(#SVGID_45_);}
	.st79{fill:url(#SVGID_46_);}
	.st80{fill:url(#SVGID_47_);}
	.st81{fill:url(#SVGID_48_);}
	.st82{fill:#CE9E8E;}
	.st83{fill:#EFE1CC;fill-opacity:0.8;}
</style>
<g>
	<defs>
		<rect id="SVGID_1_" y="0.5" width="1440" height="864"/>
	</defs>
	<clipPath id="SVGID_2_">
		<use xlink:href="#SVGID_1_"  style="overflow:visible;"/>
	</clipPath>
	<g class="st0">
		<rect x="-14.3" y="-256.6" class="st1" width="1461.5" height="595.7"/>
		<g class="st2">
			<path class="st3" d="M1075.6,239.1L764.2,127l-60.9,19l-66.3,27.3l-23.2,1.7l-185.7,64.1H1075.6z"/>
			
				<linearGradient id="SVGID_3_" gradientUnits="userSpaceOnUse" x1="925.7244" y1="5763.2622" x2="913.1824" y2="5894.2041" gradientTransform="matrix(1 0 0 -1 0 6006.8232)">
				<stop  offset="0.6198" style="stop-color:#B5A2B8"/>
				<stop  offset="1" style="stop-color:#FFFFFF"/>
			</linearGradient>
			<path class="st4" d="M783.9,155.4l16.8,2.7c0,0-14.5-9.4-21.6-15.5c-7.1-6.1-14.9-15.6-14.9-15.6l311.4,112.1
				c-44.8-1.9-79.4-17.6-132-27.9c-21.9-4.3-84.4-27.2-77.1-21.6c7.3,5.6,22,15.9,40,25.3c19,10,55.2,24.2,55.2,24.2h-43.8
				C861.1,206.9,833.3,188.3,783.9,155.4z"/>
		</g>
		<g class="st5">
			<path class="st3" d="M828.4,230.1l60-62.8l11.7,10.7l12.8,15.3l4.5,1l35.8,35.9H828.4z"/>
			
				<linearGradient id="SVGID_4_" gradientUnits="userSpaceOnUse" x1="849.8778" y1="5776.3174" x2="869.0228" y2="5845.0596" gradientTransform="matrix(1 0 0 -1 0 6006.8232)">
				<stop  offset="0.6198" style="stop-color:#B5A2B8"/>
				<stop  offset="1" style="stop-color:#FFFFFF"/>
			</linearGradient>
			<path class="st6" d="M884.7,183.2l-3.2,1.5c0,0,2.8-5.3,4.2-8.7c1.4-3.4,2.9-8.8,2.9-8.8l-60,62.8c8.6-1.1,15.3-9.9,25.5-15.6
				c4.2-2.4,16.3-15.2,14.9-12.1c-1.4,3.1-4.2,8.9-7.7,14.2c-3.7,5.6-10.6,13.6-10.6,13.6h8.4C869.8,212,875.1,201.6,884.7,183.2z"
				/>
			<path class="st7" d="M900.7,263.1c11.2-17.2,16.4-27.2,22.6-45.8c0,0-1.8,21.6-5.2,25.5C914.5,246.7,900.7,263.1,900.7,263.1z"/>
		</g>
		<g class="st8">
			<path class="st3" d="M124.8,190.4L211,69.9l16.9,20.5l18.4,29.3l6.4,1.8l51.4,68.9H124.8z"/>
			
				<linearGradient id="SVGID_5_" gradientUnits="userSpaceOnUse" x1="149.0478" y1="5818.0068" x2="195.4698" y2="5942.7617" gradientTransform="matrix(1 0 0 -1 0 6006.8232)">
				<stop  offset="0.6198" style="stop-color:#B5A2B8"/>
				<stop  offset="1" style="stop-color:#FFFFFF"/>
			</linearGradient>
			<path class="st9" d="M205.5,100.5l-4.7,2.9c0,0,4-10.1,6-16.7s4.1-16.8,4.1-16.8l-86.1,120.5c12.4-2.1,22-18.9,36.5-30
				c6.1-4.6,23.4-29.2,21.3-23.2c-2,6-6.1,17.1-11.1,27.2c-5.3,10.7-15.3,26-15.3,26h12.1C184.2,155.8,191.9,135.8,205.5,100.5z"/>
			<path class="st7" d="M197.1,165.8c11.2-17.2,16.4-27.2,22.6-45.8c0,0-1.8,21.6-5.2,25.5C210.9,149.4,197.1,165.8,197.1,165.8z"/>
		</g>
		<g class="st10">
			<path class="st3" d="M1539,250.1L1362.4,82.9l-34.6,28.4l-37.6,40.7l-13.1,2.6l-105.3,95.5H1539z"/>
			
				<linearGradient id="SVGID_6_" gradientUnits="userSpaceOnUse" x1="1472.2557" y1="5754.646" x2="1425.6058" y2="5939.9351" gradientTransform="matrix(1 0 0 -1 0 6006.8232)">
				<stop  offset="0.6198" style="stop-color:#B5A2B8"/>
				<stop  offset="1" style="stop-color:#FFFFFF"/>
			</linearGradient>
			<path class="st11" d="M1373.5,125.4l9.5,4c0,0-8.2-14.1-12.3-23.1c-4-9.1-8.5-23.3-8.5-23.3L1539,250.1
				c-25.4-2.9-45-26.3-74.9-41.6c-12.4-6.4-47.9-40.5-43.8-32.2c4.1,8.3,12.5,23.7,22.7,37.8c10.8,14.9,31.3,36,31.3,36h-24.8
				C1417.3,202.1,1401.5,174.3,1373.5,125.4z"/>
		</g>
		<g class="st5">
			<path class="st3" d="M934.5,239.1L1060.9,112l24.8,21.6l26.9,30.9l9.4,1.9l75.4,72.6H934.5z"/>
			
				<linearGradient id="SVGID_7_" gradientUnits="userSpaceOnUse" x1="980.7262" y1="5766.5762" x2="1018.1292" y2="5906.4121" gradientTransform="matrix(1 0 0 -1 0 6006.8232)">
				<stop  offset="0.6198" style="stop-color:#B5A2B8"/>
				<stop  offset="1" style="stop-color:#FFFFFF"/>
			</linearGradient>
			<path class="st12" d="M1052.9,144.2l-6.8,3c0,0,5.9-10.7,8.8-17.6c2.9-6.9,6-17.7,6-17.7L934.5,239.1c18.2-2.2,32.2-20,53.6-31.7
				c8.9-4.9,34.3-30.8,31.3-24.5c-3,6.3-8.9,18.1-16.2,28.7c-7.7,11.3-22.4,27.4-22.4,27.4h17.8
				C1021.6,202.6,1032.9,181.5,1052.9,144.2z"/>
		</g>
		<g class="st8">
			<path class="st3" d="M1153.7,189l126.6-137.1l24.8,23.3l27,33.4l9.4,2.1l75.5,78.4H1153.7z"/>
			
				<linearGradient id="SVGID_8_" gradientUnits="userSpaceOnUse" x1="1199.9006" y1="5826.6255" x2="1237.3107" y2="5966.4609" gradientTransform="matrix(1 0 0 -1 0 6006.8232)">
				<stop  offset="0.6198" style="stop-color:#B5A2B8"/>
				<stop  offset="1" style="stop-color:#FFFFFF"/>
			</linearGradient>
			<path class="st13" d="M1272.1,84.2l-6.8,3c0,0,5.9-10.7,8.8-17.6c2.9-6.9,6.1-17.7,6.1-17.7L1153.7,179
				c18.2-2.2,32.2-20,53.6-31.7c8.9-4.9,34.3-30.8,31.3-24.5c-3,6.3-8.9,18.1-16.2,28.7c-7.7,11.3-22.4,27.4-22.4,27.4h17.8
				C1240.8,142.5,1252.1,121.4,1272.1,84.2z"/>
		</g>
		<g class="st2">
			<path class="st3" d="M174.9,211.3l278.7-110.3l54.5,18.7l59.4,26.8l20.7,1.7l166.2,63.1H174.9z"/>
			
				<linearGradient id="SVGID_9_" gradientUnits="userSpaceOnUse" x1="307.9376" y1="5791.2197" x2="321.4916" y2="5919.8687" gradientTransform="matrix(1 0 0 -1 0 6006.8232)">
				<stop  offset="0.6198" style="stop-color:#B5A2B8"/>
				<stop  offset="1" style="stop-color:#FFFFFF"/>
			</linearGradient>
			<path class="st14" d="M435.9,129l-15.1,2.6c0,0,12.9-9.3,19.3-15.3c6.4-6,13.4-15.4,13.4-15.4L174.9,211.3
				c40.1-1.9,71-17.4,118.2-27.5c19.6-4.2,75.6-26.7,69-21.3c-6.5,5.5-19.7,15.7-35.8,25c-17,9.8-49.4,23.8-49.4,23.8h39.2
				C366.9,179.6,391.7,161.3,435.9,129z"/>
		</g>
		<g class="st5">
			<path class="st15" d="M163.6,226.3L37.1,116l-24.7,18.7l-26.9,26.8l-5.2,3v61.8H163.6z"/>
			
				<linearGradient id="SVGID_10_" gradientUnits="userSpaceOnUse" x1="113.6102" y1="5778.6235" x2="84.9522" y2="5902.0464" gradientTransform="matrix(1 0 0 -1 0 6006.8232)">
				<stop  offset="0.6198" style="stop-color:#B5A2B8"/>
				<stop  offset="1" style="stop-color:#FFFFFF"/>
			</linearGradient>
			<path class="st16" d="M45.1,144l6.8,2.6c0,0-5.9-9.3-8.8-15.3c-2.9-6-6.1-15.4-6.1-15.4l126.4,110.3
				c-18.2-1.9-32.2-17.4-53.6-27.5c-8.9-4.2-34.3-26.7-31.3-21.3c3,5.5,8.9,15.7,16.2,25c7.7,9.8,22.4,23.8,22.4,23.8H99.5
				C76.5,194.6,65.2,176.3,45.1,144z"/>
		</g>
		<g>
			
				<linearGradient id="SVGID_11_" gradientUnits="userSpaceOnUse" x1="816.9068" y1="6050.7939" x2="856.6088" y2="5846.5439" gradientTransform="matrix(1 0 0 -1 0 6006.8232)">
				<stop  offset="0.4688" style="stop-color:#C4C4C4;stop-opacity:0"/>
				<stop  offset="1" style="stop-color:#D0D9E3"/>
			</linearGradient>
			<path class="st17" d="M915.5,123c-374.2,83.9-629.9-63.6-629.9-63.6l918.7-77.5l169.1,0C1373.4-18.2,1289.7,39,915.5,123z"/>
		</g>
		<g>
			
				<linearGradient id="SVGID_12_" gradientUnits="userSpaceOnUse" x1="660.5701" y1="6004.6494" x2="620.8682" y2="5800.3989" gradientTransform="matrix(1 0 0 -1 0 6006.8232)">
				<stop  offset="0.4688" style="stop-color:#C4C4C4;stop-opacity:0"/>
				<stop  offset="1" style="stop-color:#D0D9E3"/>
			</linearGradient>
			<path class="st18" d="M482.1,171.5c374.2,83.9,714.3-65.2,714.3-65.2L277.8,28.9L106.3-7.7C106.3-7.7,108,87.5,482.1,171.5z"/>
		</g>
		<g>
			
				<linearGradient id="SVGID_13_" gradientUnits="userSpaceOnUse" x1="1129.3921" y1="6021.6055" x2="837.1561" y2="5916.019" gradientTransform="matrix(1 0 0 -1 0 6006.8232)">
				<stop  offset="0" style="stop-color:#E2EFF4"/>
				<stop  offset="1" style="stop-color:#EEF5F5"/>
			</linearGradient>
			<path class="st19" d="M1066.6,2.9c22.3-15.6,23.5-21,23.5-21h82.1c0,0-114.8,48.5-179.6,70.1c-74.1,24.6-175.1,43.5-175.1,43.5
				S992.6,54.8,1066.6,2.9z"/>
		</g>
		<g class="st20">
			
				<linearGradient id="SVGID_14_" gradientUnits="userSpaceOnUse" x1="1282.7833" y1="6036.3613" x2="882.5974" y2="5735.3828" gradientTransform="matrix(1 0 0 -1 0 6006.8232)">
				<stop  offset="0" style="stop-color:#B8DAEA"/>
				<stop  offset="1" style="stop-color:#F0E3E5"/>
			</linearGradient>
			<path class="st21" d="M1010.3,160.5C989.3,186.2,819.4,224,819.4,224s118.7-17.5,190.9-37.8c67.2-18.9,104.6-31.4,165.1-60
				c79.5-37.6,182.5-117.4,182.5-117.4s-90.5,47.8-156.8,64.5c-32.6,8.2-69.1-10.4-85.5,15.6c-3.2,5-2.7,8.4-6,13.3
				c-14.3,21.7-50.3,19.6-74.2,36C1017.7,150.4,1022.7,145.2,1010.3,160.5z"/>
		</g>
		
			<linearGradient id="SVGID_15_" gradientUnits="userSpaceOnUse" x1="287.2516" y1="6028.48" x2="519.4417" y2="5943.4102" gradientTransform="matrix(1 0 0 -1 0 6006.8232)">
			<stop  offset="0" style="stop-color:#C2DEEE"/>
			<stop  offset="0.9873" style="stop-color:#FFFFFF"/>
		</linearGradient>
		<path class="st22" d="M379.5,12.9c-2.2-11.4-6-18.2-18.5-31H286c35.5,21.6,56,32.8,93.6,50.5c58,27.5,153.6,58,153.6,58
			S381.8,24.3,379.5,12.9z"/>
		
			<linearGradient id="SVGID_16_" gradientUnits="userSpaceOnUse" x1="114.1835" y1="6053.2827" x2="535.7789" y2="5766.0083" gradientTransform="matrix(1 0 0 -1 0 6006.8232)">
			<stop  offset="1.539470e-02" style="stop-color:#ACCFE4"/>
			<stop  offset="0.6667" style="stop-color:#E7E6F5"/>
		</linearGradient>
		<path class="st23" d="M138,31.6c-30.5-21-47.2-43.8-47.2-43.8S109.8,7,138,31.6c28.9,19.9,70.2,38.1,121.4,33.8
			c65.5-5.5,79.4,39.3,79.4,39.3s62.4-3.1,71.3,33.1c6.8,28,98.6,51.6,145.9,60.9c19.4,2.9,29.9,4.3,26.8,4.2
			c-2.9,0-12.9-1.5-26.8-4.2c-60.7-9.1-208.4-33.5-296.5-79.3C217.2,97.6,171.2,60.8,138,31.6z"/>
		
			<linearGradient id="SVGID_17_" gradientUnits="userSpaceOnUse" x1="712.551" y1="5840.5127" x2="709.0471" y2="5208.9951" gradientTransform="matrix(1 0 0 -1 0 6006.8232)">
			<stop  offset="0" style="stop-color:#97ABDE"/>
			<stop  offset="0.3542" style="stop-color:#ECEAED"/>
			<stop  offset="1" style="stop-color:#F7EDED"/>
		</linearGradient>
		<path class="st24" d="M51.8,222.4c-64.9,0-66.6-39.8-72.1-59.5v720.6h812.7h649V192.4c0,0-84.4-38.1-157.6-41.5
			c-118.4-5.5-176.2,70.9-294.7,72.6c-83.8,1.2-199.1-31.1-212.2-31.1c-13.1,0-85.1-23.4-140.9-23.8
			c-71.6-0.5-133.5,36.3-179.7,36.3c-111.3,0-168.7-56.9-228.6-56.9C160,148.8,101.1,222.4,51.8,222.4z"/>
		
			<linearGradient id="SVGID_18_" gradientUnits="userSpaceOnUse" x1="670.9837" y1="6010.8013" x2="669.9827" y2="5657.5112" gradientTransform="matrix(1 0 0 -1 0 6006.8232)">
			<stop  offset="0" style="stop-color:#A7AFD9;stop-opacity:0"/>
			<stop  offset="1" style="stop-color:#FFFFFF"/>
		</linearGradient>
		<path class="st25" d="M428.6,259.6c-121.5-5.8-121.6,68.1-243.2,64.1c-49-1.6-124.4-16.5-124.4-16.5l-124.4-16.5l561.5-64.1
			c0,0,33-1.2,54,0c24.5,1.4,57.8,6.4,77,10c4,0.9,8.1,1.9,12.1,3c20,5.3,40.3,12.4,64.6,22c33,13,51.8,26.7,78.6,41.6
			c6.4,3.6,13.3,7.2,21,10.9c81.6,39.5,36,95.5-4.5,120.1c-40.5,24.5-189.9,75.2-232.2,80.1c-42.3,4.9-311.9,23.8-464.4,130.6
			C2.2,716.5-20.2,779.5-20.2,779.5c-118.6,214.2,96.5,308.9,96.5,308.9c168.8,124,956.3,262.2,1366.1,262.2v262.7
			C402.6,1489.7-75.7,1184-101.8,1114.4c-26.1-69.6,38.5-616.6,38.5-616.6c42-13.5,82.4-30.7,167.6-58
			c126.6-40.6,295.1-60.1,447.9-60.1c46,0,98.5-30.3,108.7-65.5c1.7-5.9,1.7-13.6-0.6-23.5c-3.1-13.5-11.7-22.6-24.1-28.7
			C583.8,247.3,478,262,428.6,259.6z"/>
		
			<linearGradient id="SVGID_19_" gradientUnits="userSpaceOnUse" x1="1378.7782" y1="5424.895" x2="1418.1282" y2="5408.2798" gradientTransform="matrix(1 0 0 -1 0 6006.8232)">
			<stop  offset="0.1118" style="stop-color:#7FA8C6"/>
			<stop  offset="1" style="stop-color:#6C96B2"/>
		</linearGradient>
		<path class="st26" d="M1420.4,593.4h-56.9c0,0-3.2-4.6-1.7-6.9c1.7-2.5,4.9,0.9,7.8,0c1.4-0.5-0.4-3.6,1.2-4.7
			c1.6-1.1,3.8,1.3,5,0.5c6.2-4.6,7.8-16.7,14.7-13.3c5,2.5,1.1,9.5,5.2,13.3c1.5,1.3,3.5,0.3,5,0.9c1.6,0.8,2.6,3.3,4.8,3.3
			c1.7,0,3.4-7.9,7.6-6.2C1417.4,582.2,1420.4,593.4,1420.4,593.4z"/>
		
			<linearGradient id="SVGID_20_" gradientUnits="userSpaceOnUse" x1="1380.5699" y1="5426.1309" x2="1398.33" y2="5412.1362" gradientTransform="matrix(1 0 0 -1 0 6006.8232)">
			<stop  offset="0" style="stop-color:#FFFFFF;stop-opacity:0.54"/>
			<stop  offset="1" style="stop-color:#FFFFFF;stop-opacity:0"/>
		</linearGradient>
		<path style="fill:url(#SVGID_20_);fill-opacity:0.6;" d="M1420.4,593.4h-56.9c0,0-3.2-4.6-1.7-6.9c1.7-2.5,4.9,0.9,7.8,0
			c1.4-0.5-0.4-3.6,1.2-4.7c1.6-1.1,3.8,1.3,5,0.5c6.2-4.6,7.8-16.7,14.7-13.3c5,2.5,1.1,9.5,5.2,13.3c1.5,1.3,3.5,0.3,5,0.9
			c1.6,0.8,2.6,3.3,4.8,3.3c1.7,0,3.4-7.9,7.6-6.2C1417.4,582.2,1420.4,593.4,1420.4,593.4z"/>
		
			<linearGradient id="SVGID_21_" gradientUnits="userSpaceOnUse" x1="88.7774" y1="5214.8857" x2="128.1245" y2="5198.272" gradientTransform="matrix(1 0 0 -1 0 6006.8232)">
			<stop  offset="0.1118" style="stop-color:#7FA8C6"/>
			<stop  offset="1" style="stop-color:#6C96B2"/>
		</linearGradient>
		<path style="fill:url(#SVGID_21_);" d="M130.4,803.4H73.5c0,0-3.2-4.6-1.7-6.9c1.7-2.5,4.9,0.9,7.8,0c1.4-0.5-0.4-3.6,1.2-4.7
			c1.6-1.1,3.8,1.3,5,0.5c6.2-4.6,7.8-16.7,14.7-13.3c5,2.5,1.1,9.5,5.2,13.3c1.5,1.3,3.5,0.3,5,0.9c1.6,0.8,2.6,3.3,4.7,3.3
			c1.7,0,3.4-7.9,7.6-6.2C127.4,792.2,130.4,803.4,130.4,803.4z"/>
		
			<linearGradient id="SVGID_22_" gradientUnits="userSpaceOnUse" x1="90.5675" y1="5216.1235" x2="108.3336" y2="5202.1284" gradientTransform="matrix(1 0 0 -1 0 6006.8232)">
			<stop  offset="0" style="stop-color:#FFFFFF;stop-opacity:0.54"/>
			<stop  offset="1" style="stop-color:#FFFFFF;stop-opacity:0"/>
		</linearGradient>
		<path style="fill:url(#SVGID_22_);fill-opacity:0.6;" d="M130.4,803.4H73.5c0,0-3.2-4.6-1.7-6.9c1.7-2.5,4.9,0.9,7.8,0
			c1.4-0.5-0.4-3.6,1.2-4.7c1.6-1.1,3.8,1.3,5,0.5c6.2-4.6,7.8-16.7,14.7-13.3c5,2.5,1.1,9.5,5.2,13.3c1.5,1.3,3.5,0.3,5,0.9
			c1.6,0.8,2.6,3.3,4.7,3.3c1.7,0,3.4-7.9,7.6-6.2C127.4,792.2,130.4,803.4,130.4,803.4z"/>
		
			<linearGradient id="SVGID_23_" gradientUnits="userSpaceOnUse" x1="1224.3292" y1="5712.8872" x2="1263.6793" y2="5696.2734" gradientTransform="matrix(1 0 0 -1 0 6006.8232)">
			<stop  offset="0.1118" style="stop-color:#7FA8C6"/>
			<stop  offset="1" style="stop-color:#6C96B2"/>
		</linearGradient>
		<path style="fill:url(#SVGID_23_);" d="M1266,305.4h-56.9c0,0-3.2-4.6-1.7-6.9c1.7-2.5,4.9,0.9,7.8,0c1.4-0.5-0.4-3.6,1.2-4.7
			c1.6-1.1,3.8,1.3,5,0.5c6.2-4.6,7.8-16.7,14.7-13.3c5,2.5,1.1,9.5,5.2,13.3c1.5,1.3,3.5,0.3,5,0.9c1.6,0.8,2.6,3.3,4.7,3.3
			c1.7,0,3.4-7.9,7.6-6.2C1262.9,294.2,1266,305.4,1266,305.4z"/>
		
			<linearGradient id="SVGID_24_" gradientUnits="userSpaceOnUse" x1="1226.1219" y1="5714.123" x2="1243.892" y2="5700.1284" gradientTransform="matrix(1 0 0 -1 0 6006.8232)">
			<stop  offset="0" style="stop-color:#FFFFFF;stop-opacity:0.54"/>
			<stop  offset="1" style="stop-color:#FFFFFF;stop-opacity:0"/>
		</linearGradient>
		<path style="fill:url(#SVGID_24_);fill-opacity:0.6;" d="M1266,305.4h-56.9c0,0-3.2-4.6-1.7-6.9c1.7-2.5,4.9,0.9,7.8,0
			c1.4-0.5-0.4-3.6,1.2-4.7c1.6-1.1,3.8,1.3,5,0.5c6.2-4.6,7.8-16.7,14.7-13.3c5,2.5,1.1,9.5,5.2,13.3c1.5,1.3,3.5,0.3,5,0.9
			c1.6,0.8,2.6,3.3,4.7,3.3c1.7,0,3.4-7.9,7.6-6.2C1262.9,294.2,1266,305.4,1266,305.4z"/>
		
			<linearGradient id="SVGID_25_" gradientUnits="userSpaceOnUse" x1="175.7774" y1="5650.8857" x2="215.1244" y2="5634.2715" gradientTransform="matrix(1 0 0 -1 0 6006.8232)">
			<stop  offset="0.1118" style="stop-color:#7FA8C6"/>
			<stop  offset="1" style="stop-color:#6C96B2"/>
		</linearGradient>
		<path style="fill:url(#SVGID_25_);" d="M217.4,367.4h-56.9c0,0-3.2-4.6-1.7-6.9c1.7-2.5,4.9,0.9,7.8,0c1.4-0.5-0.4-3.6,1.2-4.7
			c1.6-1.1,3.8,1.3,5,0.5c6.2-4.6,7.8-16.7,14.7-13.3c5,2.5,1.1,9.5,5.2,13.3c1.5,1.3,3.5,0.3,5,0.9c1.6,0.8,2.6,3.3,4.7,3.3
			c1.7,0,3.4-7.9,7.6-6.2C214.4,356.2,217.4,367.4,217.4,367.4z"/>
		
			<linearGradient id="SVGID_26_" gradientUnits="userSpaceOnUse" x1="177.5675" y1="5652.123" x2="195.3335" y2="5638.1284" gradientTransform="matrix(1 0 0 -1 0 6006.8232)">
			<stop  offset="0" style="stop-color:#FFFFFF;stop-opacity:0.54"/>
			<stop  offset="1" style="stop-color:#FFFFFF;stop-opacity:0"/>
		</linearGradient>
		<path style="fill:url(#SVGID_26_);fill-opacity:0.6;" d="M217.4,367.4h-56.9c0,0-3.2-4.6-1.7-6.9c1.7-2.5,4.9,0.9,7.8,0
			c1.4-0.5-0.4-3.6,1.2-4.7c1.6-1.1,3.8,1.3,5,0.5c6.2-4.6,7.8-16.7,14.7-13.3c5,2.5,1.1,9.5,5.2,13.3c1.5,1.3,3.5,0.3,5,0.9
			c1.6,0.8,2.6,3.3,4.7,3.3c1.7,0,3.4-7.9,7.6-6.2C214.4,356.2,217.4,367.4,217.4,367.4z"/>
		<g>
			<path class="st35" d="M186.9,206.5c6.4-3.1,19.4-8.3,26-10.6c14.1-4.8,16.5-7.8,30.1-8.9c38.2-3.3,33.2,8.9,33.2,8.9
				s-18.8,6.6-31.2,8.9C222.7,209.1,166.3,216.3,186.9,206.5z"/>
		</g>
		<path class="st36" d="M260.4,180.4h9v11.9c-3.5,1.5-5.5,1.5-9,0V180.4z"/>
		<path class="st37" d="M264.1,92.2c0.4-0.7,1.4-0.7,1.8,0l20,39.6c0.3,0.7-0.1,1.4-0.9,1.4h-4.4c-0.8,0-1.3,0.9-0.9,1.5l11.2,18.5
			c0.4,0.7-0.1,1.5-0.9,1.5h-6.2c-0.8,0-1.3,0.9-0.9,1.5l12.6,20.7c0.4,0.6,0,1.4-0.7,1.5c-23.1,3-36.8,2.9-59.9,0
			c-0.7-0.1-1.1-0.9-0.7-1.5l12.6-20.7c0.4-0.7-0.1-1.5-0.9-1.5h-6.2c-0.8,0-1.3-0.9-0.9-1.5l11.2-18.5c0.4-0.7-0.1-1.5-0.9-1.5
			h-4.4c-0.7,0-1.2-0.8-0.9-1.5L264.1,92.2z"/>
		<path class="st38" d="M282.3,179.8c-0.5,0.1-0.9-0.2-1.1-0.7l-7.4-23.7c-0.1-0.4,0-0.9,0.4-1.1l4-2.8c0.4-0.3,0.5-0.8,0.3-1.3
			l-8.1-16.4c-0.2-0.4-0.1-0.9,0.2-1.2l4.1-3.8c0.3-0.3,0.4-0.6,0.3-1l-9.4-35.6c-0.1-0.2,0.3-0.4,0.4-0.1l20,39.7
			c0.3,0.7-0.1,1.5-0.9,1.5h-4.4c-0.8,0-1.3,0.9-0.9,1.5l11.2,18.5c0.4,0.7-0.1,1.5-0.9,1.5h-6.2c-0.8,0-1.3,0.9-0.9,1.5l12.6,20.7
			c0.4,0.6,0,1.4-0.7,1.5L282.3,179.8z"/>
		<g>
			<path class="st35" d="M1226.8,195.4c-5-2.3-15.2-6.2-20.3-7.8c-11-3.4-13-5.9-23.4-6.2c-29.2-0.9-24.6,9.4-24.6,9.4
				s14.6,4.7,24.2,6.2C1199.8,199.4,1243,202.8,1226.8,195.4z"/>
		</g>
		<path class="st36" d="M1175,177.1h-7.2v9.4c2.8,1.2,4.4,1.2,7.2,0V177.1z"/>
		
			<linearGradient id="SVGID_27_" gradientUnits="userSpaceOnUse" x1="1156.9342" y1="5897.9146" x2="1187.4843" y2="5761.1685" gradientTransform="matrix(1 0 0 -1 0 6006.8232)">
			<stop  offset="0" style="stop-color:#92B7D2"/>
			<stop  offset="0.958" style="stop-color:#749EBD"/>
		</linearGradient>
		<path style="fill:url(#SVGID_27_);" d="M1171.8,106.5c-0.2-0.4-0.7-0.4-0.9,0l-16.3,32.4c-0.2,0.3,0.1,0.7,0.4,0.7h4.5
			c0.4,0,0.6,0.4,0.4,0.8l-9.5,15.6c-0.2,0.3,0,0.8,0.4,0.8h6c0.4,0,0.6,0.4,0.4,0.8l-10.5,17.3c-0.2,0.3,0,0.7,0.4,0.8
			c18.8,2.4,29.7,2.4,48.5,0c0.4,0,0.5-0.4,0.4-0.8l-10.5-17.3c-0.2-0.3,0-0.8,0.4-0.8h6c0.4,0,0.6-0.4,0.4-0.8l-9.5-15.6
			c-0.2-0.3,0-0.8,0.4-0.8h4.5c0.4,0,0.6-0.4,0.4-0.7L1171.8,106.5z"/>
		<path class="st38" d="M1157.9,176.7c0.2,0,0.5-0.1,0.5-0.3l6-19.2c0.1-0.2,0-0.4-0.2-0.6l-3.5-2.5c-0.2-0.1-0.3-0.4-0.2-0.6
			l6.6-13.4c0.1-0.2,0.1-0.4-0.1-0.6l-3.5-3.3c-0.1-0.1-0.2-0.3-0.1-0.5l6.7-25.3c0.1-0.6-0.7-0.9-0.9-0.4l-14.6,29
			c-0.2,0.3,0.1,0.7,0.4,0.7h4.5c0.4,0,0.6,0.4,0.4,0.8l-9.5,15.6c-0.2,0.3,0,0.8,0.4,0.8h6c0.4,0,0.6,0.4,0.4,0.8l-10.5,17.2
			c-0.2,0.3,0,0.7,0.4,0.8L1157.9,176.7z"/>
		<g>
			<path class="st40" d="M625,215.7c-3.6-2.5,3.1-8.1,15.6-9.7c7.8-1,13.8-3.1,27.4-2.7c38.3,1.3,32.8,7.3,32.8,7.3
				s-21.8,7.5-34.4,8.2C643.8,220.2,632.1,220.6,625,215.7z"/>
		</g>
		<path class="st41" d="M667.1,122.2c0.4-0.7,1.4-0.7,1.8,0l19.3,39.5c0.3,0.7-0.2,1.4-0.9,1.4h-4.2c-0.8,0-1.3,0.8-0.9,1.5
			l10.9,18.5c0.4,0.7-0.1,1.5-0.9,1.5h-5.9c-0.8,0-1.3,0.8-0.9,1.5l12.2,20.7c0.4,0.6,0,1.4-0.7,1.5c-22.4,3-35.6,2.9-58,0
			c-0.7-0.1-1.1-0.9-0.7-1.5l12.2-20.7c0.4-0.7-0.1-1.5-0.9-1.5h-5.9c-0.8,0-1.3-0.8-0.9-1.5l10.9-18.5c0.4-0.7-0.1-1.5-0.9-1.5
			h-4.2c-0.7,0-1.2-0.8-0.9-1.4L667.1,122.2z"/>
		<path class="st42" d="M692.5,208.3c-0.3,0-0.7-0.2-0.9-0.5l-14.6-23.6c-0.4-0.6,0-1.4,0.7-1.5l8.1-1.1c0.7-0.1,1.1-0.9,0.7-1.5
			l-9.7-15.8c-0.3-0.5-0.1-1.3,0.5-1.5l4.5-1.6c0.5-0.2,0.8-0.8,0.6-1.3L668,120.4l20.2,41.4c0.3,0.7-0.2,1.4-0.9,1.4h-4.2
			c-0.8,0-1.3,0.8-0.9,1.5l10.9,18.5c0.4,0.7-0.1,1.5-0.9,1.5h-5.9c-0.8,0-1.3,0.8-0.9,1.5l12.1,20.5c0.4,0.7-0.1,1.5-0.9,1.5H692.5
			z"/>
		<g>
			<path class="st43" d="M758,229.3c3.3-2.1,0.2-5-5-7.9c-5.8-3.2-19.9-5.2-32.3-4.8c-34.9,1.3-31.7,8.8-31.7,8.8s-3.6,5.3,31.3,6.9
				C740.9,233.2,751.5,233.6,758,229.3z"/>
		</g>
		<path class="st36" d="M713.4,218.8h13v8.7c-5.1,1.1-7.9,1.1-13,0V218.8z"/>
		
			<linearGradient id="SVGID_28_" gradientUnits="userSpaceOnUse" x1="719.9456" y1="5906.9116" x2="719.9456" y2="5855.9116" gradientTransform="matrix(1 0 0 -1 0 6006.8232)">
			<stop  offset="0" style="stop-color:#FCEDD5"/>
			<stop  offset="1" style="stop-color:#92B7D2"/>
		</linearGradient>
		<path class="st39" d="M719.1,115.6c0.3-0.8,1.5-0.8,1.8,0l20.1,47.7c0.3,0.7-0.2,1.4-0.9,1.4h-4.6c-0.7,0-1.2,0.8-0.9,1.5
			l11.6,22.9c0.3,0.7-0.1,1.5-0.9,1.5h-6.5c-0.7,0-1.2,0.8-0.9,1.5l12.9,25.5c0.3,0.6-0.1,1.3-0.7,1.4c-23.3,3.6-37,3.6-60.3,0
			c-0.7-0.1-1.1-0.8-0.7-1.4L702,192c0.3-0.7-0.1-1.5-0.9-1.5h-6.5c-0.7,0-1.2-0.8-0.9-1.5l11.6-22.9c0.3-0.7-0.1-1.5-0.9-1.5h-4.6
			c-0.7,0-1.2-0.7-0.9-1.4L719.1,115.6z"/>
		<g>
			
				<linearGradient id="SVGID_29_" gradientUnits="userSpaceOnUse" x1="462.9602" y1="5831.2178" x2="419.4602" y2="5750.2178" gradientTransform="matrix(1 0 0 -1 0 6006.8232)">
				<stop  offset="0" style="stop-color:#B0BBD8"/>
				<stop  offset="1" style="stop-color:#B0BBD8;stop-opacity:0"/>
			</linearGradient>
			<path style="fill:url(#SVGID_29_);fill-opacity:0.5;" d="M548.4,223.4l-49-2l-205,61l108.5,15L548.4,223.4z"/>
		</g>
		<g>
			
				<linearGradient id="SVGID_30_" gradientUnits="userSpaceOnUse" x1="368.0894" y1="5723.4619" x2="348.9514" y2="5616.374" gradientTransform="matrix(1 0 0 -1 0 6006.8232)">
				<stop  offset="0" style="stop-color:#E2E9F2"/>
				<stop  offset="1" style="stop-color:#E2E9F2;stop-opacity:0"/>
			</linearGradient>
			<path style="fill:url(#SVGID_30_);" d="M278.4,349.9c-4.1,0,96.7-50.5,102-54.5c5.9-4.5,20.4-7.1,32.7-7
				c34.6,0.5,29.1,15.2,29.1,15.2s-30,13.6-41.3,14.7C380.5,320.5,285.3,349.9,278.4,349.9z"/>
		</g>
		<path class="st36" d="M414.4,280.4h10v12.8c-3.9,1.7-6.1,1.6-10,0V280.4z"/>
		<path class="st47" d="M417.4,169.3c0.4-0.8,1.4-0.8,1.8,0l24.3,51.5c0.3,0.7-0.2,1.4-0.9,1.4h-6c-0.8,0-1.2,0.8-0.9,1.5l14,24.6
			c0.4,0.7-0.1,1.5-0.9,1.5h-8.3c-0.8,0-1.2,0.8-0.9,1.5l15.6,27.4c0.3,0.6,0,1.4-0.7,1.5c-28.1,3.9-44.5,3.8-72.7,0
			c-0.7-0.1-1.1-0.9-0.7-1.5l15.6-27.4c0.4-0.7-0.1-1.5-0.9-1.5h-8.3c-0.8,0-1.2-0.8-0.9-1.5l14-24.6c0.4-0.7-0.1-1.5-0.9-1.5h-6
			c-0.7,0-1.2-0.8-0.9-1.4L417.4,169.3z"/>
		<path class="st48" d="M445.2,281.3c-0.4,0.1-0.8-0.2-1-0.5l-15.1-30.2c-0.2-0.4-0.1-1,0.3-1.2l5-3.8c0.4-0.3,0.5-0.8,0.3-1.2
			l-9.9-21.4c-0.2-0.4-0.1-0.8,0.2-1.1l5.2-5.2c0.2-0.2,0.3-0.6,0.3-0.9l-11.5-46.3c-0.1-0.2,0.3-0.4,0.4-0.1l24.4,51.6
			c0.3,0.7-0.2,1.4-0.9,1.4h-6c-0.8,0-1.2,0.8-0.9,1.5l14,24.6c0.4,0.7-0.1,1.5-0.9,1.5h-8.3c-0.8,0-1.2,0.8-0.9,1.5l15.6,27.4
			c0.4,0.6,0,1.4-0.8,1.5L445.2,281.3z"/>
		<g>
			<path class="st49" d="M81.9,234.4c-3.5-2.8,6.5-9,15.5-12c7.5-2.5,27.2-11.3,40.9-11c38.4,0.8,34.6,11,34.6,11s-22,9-34.6,10
				C115.7,234.3,88.9,239.9,81.9,234.4z"/>
		</g>
		<path class="st50" d="M150.1,145c0.4-0.7,1.4-0.7,1.8,0l19.2,35.3c0.4,0.7-0.1,1.5-0.9,1.5h-4c-0.8,0-1.3,0.9-0.8,1.5l10.6,16.2
			c0.4,0.7,0,1.5-0.8,1.5h-5.7c-0.8,0-1.3,0.9-0.8,1.5l12,18.2c0.4,0.6,0,1.5-0.7,1.5c-22.3,2.6-35.5,2.6-57.8,0
			c-0.7-0.1-1.1-0.9-0.7-1.5l12-18.2c0.4-0.7,0-1.5-0.8-1.5h-5.7c-0.8,0-1.3-0.9-0.8-1.5l10.6-16.2c0.4-0.7,0-1.5-0.8-1.5h-4
			c-0.8,0-1.2-0.8-0.9-1.5L150.1,145z"/>
		<path class="st38" d="M167.7,223.6c-0.5,0-0.9-0.2-1-0.7l-7.1-21.1c-0.1-0.4,0-0.9,0.4-1.2l3.7-2.4c0.4-0.3,0.6-0.8,0.3-1.3
			l-7.7-14.4c-0.2-0.4-0.1-0.9,0.2-1.2l3.8-3.3c0.3-0.3,0.4-0.7,0.3-1l-9.1-31.8c-0.1-0.2,0.3-0.4,0.4-0.2l19.2,35.3
			c0.4,0.7-0.1,1.5-0.9,1.5h-4c-0.8,0-1.3,0.9-0.8,1.5l10.6,16.2c0.4,0.7,0,1.5-0.8,1.5h-5.7c-0.8,0-1.3,0.9-0.8,1.5l11.9,18.2
			c0.4,0.6,0,1.5-0.7,1.5L167.7,223.6z"/>
		<g>
			<path class="st51" d="M1463,252.5c-6.4-3.1-19.3-8.3-26-10.6c-14.1-4.8-16.5-7.8-30.1-8.9c-38.2-3.3-33.1,8.9-33.1,8.9
				s18.8,6.6,31.2,8.9C1427.2,255.1,1483.6,262.3,1463,252.5z"/>
		</g>
		<g>
			
				<linearGradient id="SVGID_31_" gradientUnits="userSpaceOnUse" x1="808.864" y1="5733.5898" x2="835.974" y2="5694.4448" gradientTransform="matrix(1 0 0 -1 0 6006.8232)">
				<stop  offset="0" style="stop-color:#E2E3EF"/>
				<stop  offset="1" style="stop-color:#E2E3EF;stop-opacity:0"/>
			</linearGradient>
			<path style="fill:url(#SVGID_31_);fill-opacity:0.5;" d="M857.7,305.8c0,0-10-13.1-31.4-27c-4.9-3.2-11.4-7.8-19.6-7.2
				c-22.9,1.7-18.4,9.9-18.4,9.9s5.1,6.9,14.6,10.7C808.6,294.6,841.6,308.7,857.7,305.8z"/>
		</g>
		<g>
			<path class="st51" d="M1399.5,215.9c-12.5-9-11.8-8.9-20-13c-13.5-6.7-23.7-6.5-37.7-7.2c-39.4-1.9-34.1,5.1-34.1,5.1
				s32.1,16.4,44.9,17.8C1371.4,220.7,1418.4,229.6,1399.5,215.9z"/>
		</g>
		<path class="st36" d="M1381.4,224.4h9v11c-3.5,1.4-5.5,1.4-9,0V224.4z"/>
		<path class="st47" d="M1385.6,136.5c0.4-0.8,1.5-0.8,1.8,0l17,39.3c0.3,0.7-0.2,1.4-0.9,1.4h-3.5c-0.8,0-1.2,0.8-0.9,1.5l9.7,18.6
			c0.3,0.7-0.1,1.5-0.9,1.5h-5.1c-0.8,0-1.2,0.8-0.9,1.5l10.9,20.8c0.3,0.6-0.1,1.3-0.7,1.4c-19.8,3-31.4,2.8-51.2,0
			c-0.7-0.1-1.1-0.8-0.8-1.5l10.8-20.8c0.4-0.7-0.1-1.5-0.9-1.5h-5.1c-0.8,0-1.2-0.8-0.9-1.5l9.7-18.6c0.3-0.7-0.1-1.5-0.9-1.5h-3.5
			c-0.7,0-1.2-0.7-0.9-1.4L1385.6,136.5z"/>
		
			<linearGradient id="SVGID_32_" gradientUnits="userSpaceOnUse" x1="1400.4202" y1="5782.9595" x2="1400.4202" y2="5872.4595" gradientTransform="matrix(1 0 0 -1 0 6006.8232)">
			<stop  offset="0" style="stop-color:#6975A5"/>
			<stop  offset="1" style="stop-color:#6975A5;stop-opacity:0"/>
		</linearGradient>
		<path style="fill:url(#SVGID_32_);" d="M1399.9,223.9c-0.3,0-0.5-0.1-0.5-0.4l-5.5-24.4c0-0.2,0-0.4,0.2-0.5l4-3.3
			c0.2-0.1,0.2-0.4,0.1-0.6l-7.2-17.1c-0.1-0.2,0-0.4,0.1-0.5l3.9-4.3c0.1-0.1,0.2-0.3,0.1-0.4l-7.4-32.5c-0.1-0.6,0.7-0.9,0.9-0.3
			l16.1,37.2c0.1,0.3-0.1,0.7-0.5,0.7h-5.1c-0.4,0-0.6,0.4-0.4,0.7l10.5,20.1c0.2,0.3-0.1,0.7-0.4,0.7h-6.7c-0.4,0-0.6,0.4-0.4,0.7
			l11.5,22.2c0.2,0.3,0,0.7-0.4,0.7L1399.9,223.9z"/>
		<path class="st47" d="M1331.6,103.9c0.3-0.9,1.5-0.9,1.9,0l17,44.7c0.3,0.7-0.2,1.4-0.9,1.4h-3.7c-0.7,0-1.2,0.8-0.9,1.4l9.9,21.6
			c0.3,0.7-0.2,1.4-0.9,1.4h-5.2c-0.7,0-1.2,0.8-0.9,1.4l11.1,24.1c0.3,0.6-0.1,1.3-0.7,1.4c-19.9,3.4-31.6,3.2-51.4,0
			c-0.7-0.1-1-0.8-0.8-1.4l11.1-24.1c0.3-0.7-0.2-1.4-0.9-1.4h-5.2c-0.7,0-1.2-0.8-0.9-1.4l9.9-21.6c0.3-0.7-0.2-1.4-0.9-1.4h-3.7
			c-0.7,0-1.2-0.7-0.9-1.4L1331.6,103.9z"/>
		
			<linearGradient id="SVGID_33_" gradientUnits="userSpaceOnUse" x1="1346.4326" y1="5804.4116" x2="1346.4326" y2="5905.4116" gradientTransform="matrix(1 0 0 -1 0 6006.8232)">
			<stop  offset="0" style="stop-color:#6975A5"/>
			<stop  offset="1" style="stop-color:#6975A5;stop-opacity:0"/>
		</linearGradient>
		<path class="st53" d="M1346,202.8c-0.3,0-0.5-0.1-0.6-0.4l-5.5-27.9c0-0.2,0-0.3,0.2-0.5l4.1-3.8c0.2-0.1,0.2-0.3,0.1-0.5
			l-7.3-19.6c-0.1-0.2,0-0.4,0.1-0.5l4-5c0.1-0.1,0.1-0.3,0.1-0.4l-7.4-37c-0.1-0.6,0.7-0.8,0.9-0.3l16.1,42.2
			c0.1,0.3-0.1,0.7-0.5,0.7h-5.2c-0.4,0-0.6,0.4-0.4,0.7l10.6,23c0.2,0.3-0.1,0.7-0.5,0.7h-6.8c-0.4,0-0.6,0.4-0.4,0.7l11.7,25.3
			c0.1,0.3-0.1,0.7-0.4,0.7L1346,202.8z"/>
		<g>
			<path class="st55" d="M1736.9,726.4c46.4,0-31.6-111.7-70.5-128.7c-123.5-54-82.5-47-164.4-54c-229.7-19.6-206.5,43.3-199.3,54
				c7.2,10.7,71.6,75,147.8,85.9C1585.9,702.8,1706.4,726.4,1736.9,726.4z"/>
		</g>
		<path class="st56" d="M1341.9,526.7h29.8v28c-11.7,3.7-18.2,3.5-29.8,0V526.7z"/>
		<path class="st47" d="M1355.1,207.8c0.7-1.6,3-1.6,3.7,0l62.3,147.6c0.6,1.3-0.4,2.8-1.8,2.8H1402c-1.5,0-2.5,1.6-1.8,2.9l36.7,72
			c0.7,1.3-0.3,2.9-1.8,2.9h-23c-1.5,0-2.5,1.6-1.8,2.9l40.6,79.7c0.6,1.2-0.2,2.7-1.5,2.9c-72.8,10.9-114.3,10.7-185.2,0
			c-1.3-0.2-2.1-1.7-1.5-2.9l40.6-79.7c0.7-1.3-0.3-2.9-1.8-2.9h-23c-1.5,0-2.5-1.6-1.8-2.9l36.7-72c0.7-1.3-0.3-2.9-1.8-2.9h-17.3
			c-1.4,0-2.4-1.5-1.8-2.8L1355.1,207.8z"/>
		
			<linearGradient id="SVGID_34_" gradientUnits="userSpaceOnUse" x1="1405.4865" y1="5464.4116" x2="1405.4865" y2="5803.4116" gradientTransform="matrix(1 0 0 -1 0 6006.8232)">
			<stop  offset="0" style="stop-color:#6975A5"/>
			<stop  offset="1" style="stop-color:#6975A5;stop-opacity:0"/>
		</linearGradient>
		<path class="st54" d="M1409.7,526.3c-0.5,0.1-0.9-0.2-1.1-0.7l-25.6-88.9c-0.1-0.4,0-0.8,0.3-1l14.9-12.7c0.3-0.3,0.4-0.7,0.3-1.1
			l-26-63c-0.2-0.4-0.1-0.8,0.2-1l14.5-16.3c0.2-0.2,0.3-0.6,0.2-0.9l-28-126.3c-0.3-1.2,1.4-1.7,1.9-0.6l60.5,143.2
			c0.3,0.7-0.2,1.4-0.9,1.4h-20.4c-0.8,0-1.2,0.8-0.9,1.5l38.2,74.9c0.3,0.7-0.1,1.5-0.9,1.5h-26.3c-0.7,0-1.2,0.8-0.9,1.5
			l41.9,82.4c0.3,0.6-0.1,1.4-0.8,1.4L1409.7,526.3z"/>
		<g>
			<path class="st58" d="M-98.3,467.1c13.3-6.4,40.3-17.3,54.2-22c29.3-9.9,34.3-16.2,62.7-18.6c79.6-6.8,69,18.6,69,18.6
				c-4.6,9.8-43.5,17.4-64.9,18.6C-24.6,466.4-141.2,487.6-98.3,467.1z"/>
		</g>
		<path class="st56" d="M49.3,420.1H74v20.1c-9.6,2.6-15,2.5-24.7,0V420.1z"/>
		<path class="st47" d="M60.4,184.5c0.7-1.6,2.9-1.6,3.6,0l48.5,108c0.6,1.3-0.4,2.8-1.8,2.8H98.6c-1.5,0-2.5,1.6-1.8,3l28.1,51.9
			c0.7,1.3-0.2,3-1.8,3h-16.6c-1.5,0-2.5,1.6-1.8,3l31.3,57.8c0.6,1.2-0.1,2.6-1.4,2.9c-57.2,12-90,12.4-145.5,0
			c-1.3-0.3-2-1.7-1.3-2.9L19.4,356c0.7-1.3-0.2-3-1.8-3H1c-1.5,0-2.5-1.6-1.8-3l28.1-51.9c0.7-1.3-0.2-3-1.8-3H13.4
			c-1.5,0-2.4-1.5-1.8-2.8L60.4,184.5z"/>
		
			<linearGradient id="SVGID_35_" gradientUnits="userSpaceOnUse" x1="23.4309" y1="5585.8184" x2="23.4309" y2="5826.4116" gradientTransform="matrix(1 0 0 -1 0 6006.8232)">
			<stop  offset="0" style="stop-color:#6975A5"/>
			<stop  offset="1" style="stop-color:#6975A5;stop-opacity:0"/>
		</linearGradient>
		<path class="st57" d="M20.1,422.7c0.5,0.1,1-0.2,1.2-0.7l20.1-68.4c0.1-0.4,0-0.8-0.3-1.1l-11.5-9.2c-0.4-0.3-0.5-0.8-0.3-1.2
			l20.4-46.4c0.2-0.4,0.1-0.8-0.2-1.1l-11.2-11.9c-0.2-0.2-0.3-0.6-0.2-0.9l21.6-91.4c0.3-1.2-1.4-1.7-1.9-0.6L11,293.9
			c-0.3,0.7,0.2,1.4,0.9,1.4h15.4c0.8,0,1.2,0.8,0.9,1.5l-29.7,54.8c-0.4,0.7,0.1,1.5,0.9,1.5h20c0.8,0,1.2,0.8,0.9,1.5L-12.6,415
			c-0.3,0.6,0,1.3,0.7,1.5L20.1,422.7z"/>
		
			<linearGradient id="SVGID_36_" gradientUnits="userSpaceOnUse" x1="522.446" y1="5859.9116" x2="522.446" y2="5755.4116" gradientTransform="matrix(1 0 0 -1 0 6006.8232)">
			<stop  offset="0" style="stop-color:#E4C99B"/>
			<stop  offset="1" style="stop-color:#B2BCDB"/>
		</linearGradient>
		<rect x="496.4" y="9.4" class="st59" width="52" height="214.2"/>
		<ellipse class="st61" cx="522.9" cy="45.1" rx="21.2" ry="21.6"/>
		<path class="st62" d="M541.6,45.1c0,10.6-8.4,19.2-18.7,19.2c-10.3,0-18.7-8.6-18.7-19.2s8.4-19.2,18.7-19.2
			C533.2,25.9,541.6,34.5,541.6,45.1z"/>
		<line class="st63" x1="523.8" y1="27.9" x2="523.8" y2="34.1"/>
		<line class="st63" x1="523.8" y1="55.2" x2="523.8" y2="61.4"/>
		<line class="st63" x1="533.5" y1="43.8" x2="539.6" y2="43.8"/>
		<line class="st63" x1="506.1" y1="43.8" x2="512.3" y2="43.8"/>
		<rect x="508.4" y="72.4" class="st64" width="6" height="30"/>
		<rect x="519.4" y="72.4" class="st64" width="6" height="30"/>
		<rect x="530.4" y="72.4" class="st64" width="6" height="30"/>
		<path class="st65" d="M1336.4,745c0,0.1,0,0.1,0,0.2c0,0,0,0.1,0,0.1c0,0.4-2.8,0.6-6.2,0.6c-3.4,0-6.2-0.3-6.2-0.6
			c0,0,0-0.1,0-0.1c0-0.1,0-0.1,0-0.2c0-1.8,2.8-3.2,6.2-3.2C1333.7,741.9,1336.4,743.3,1336.4,745z"/>
		<path class="st65" d="M1301.1,748.7c0,0.3,0,0.5,0,0.8c0,0.1,0,0.3,0,0.4c0,1.3-9.3,2.4-20.8,2.4c-11.5,0-20.8-1.1-20.8-2.4
			c0-0.1,0.1-0.3,0-0.4c0-0.3,0-0.5,0-0.8c0-6.6,9.3-11.9,20.8-11.9C1291.8,736.8,1301.1,742.1,1301.1,748.7z"/>
		<path class="st65" d="M1321.9,742.1c0,0.1,0,0.1,0,0.2c0,0,0,0.1,0,0.1c0,0.4-1.9,0.6-4.2,0.6c-2.3,0-4.2-0.3-4.2-0.6
			c0,0,0-0.1,0-0.1c0-0.1,0-0.1,0-0.2c0-1.8,1.9-3.2,4.2-3.2C1320,738.9,1321.9,740.3,1321.9,742.1z"/>
		<path class="st65" d="M1259.6,754.6c0,0.1,0,0.1,0,0.2c0,0,0,0.1,0,0.1c0,0.4-2.8,0.6-6.2,0.6c-3.4,0-6.2-0.3-6.2-0.6
			c0,0,0-0.1,0-0.1c0-0.1,0-0.1,0-0.2c0-1.8,2.8-3.2,6.2-3.2C1256.8,751.4,1259.6,752.8,1259.6,754.6z"/>
		<path class="st65" d="M1240.8,729.6c0,0.1,0,0.1,0,0.2c0,0,0,0.1,0,0.1c0,0.4-1.9,0.6-4.2,0.6c-2.3,0-4.2-0.3-4.2-0.6
			c0,0,0-0.1,0-0.1c0-0.1,0-0.1,0-0.2c0-1.8,1.9-3.2,4.2-3.2C1239,726.4,1240.8,727.8,1240.8,729.6z"/>
		<path class="st65" d="M1265.8,760.8c0,0.1,0,0.1,0,0.2c0,0,0,0.1,0,0.1c0,0.4-1.9,0.6-4.2,0.6c-2.3,0-4.2-0.3-4.2-0.6
			c0,0,0-0.1,0-0.1c0-0.1,0-0.1,0-0.2c0-1.8,1.9-3.2,4.2-3.2C1263.9,757.6,1265.8,759,1265.8,760.8z"/>
		<path class="st65" d="M1317.7,762.9c0,0.1,0,0.1,0,0.2c0,0,0,0.1,0,0.1c0,0.4-2.8,0.6-6.2,0.6c-3.4,0-6.2-0.3-6.2-0.6
			c0,0,0-0.1,0-0.1c0-0.1,0-0.1,0-0.2c0-1.8,2.8-3.2,6.2-3.2C1314.9,759.7,1317.7,761.1,1317.7,762.9z"/>
		<path class="st65" d="M1253.3,762.4c0,0.1,0,0.2,0,0.3c0,0.1,0,0.1,0,0.2c0,0.5-5.1,1-11.4,1c-6.3,0-11.4-0.4-11.4-1
			c0-0.1,0-0.1,0-0.2c0-0.1,0-0.2,0-0.3c0-2.6,5.1-4.8,11.4-4.8C1248.2,757.6,1253.3,759.7,1253.3,762.4z"/>
		<path class="st65" d="M1309.4,732.8c0,0.1,0,0.3,0,0.4c0,0.1,0,0.1,0,0.2c0,0.7-3.7,1.3-8.3,1.3c-4.6,0-8.3-0.6-8.3-1.3
			c0-0.1,0-0.1,0-0.2c0-0.1,0-0.3,0-0.4c0-3.5,3.7-6.4,8.3-6.4C1305.7,726.4,1309.4,729.3,1309.4,732.8z"/>
		<path class="st66" d="M901.4,506c0,0.1,0,0.1,0,0.2c0,0,0,0.1,0,0.1c0,0.4-2.8,0.6-6.2,0.6c-3.4,0-6.2-0.3-6.2-0.6
			c0,0,0-0.1,0-0.1c0-0.1,0-0.1,0-0.2c0-1.8,2.8-3.2,6.2-3.2C898.7,502.9,901.4,504.3,901.4,506z"/>
		<path class="st66" d="M866.1,509.7c0,0.3,0,0.5,0,0.8c0,0.1,0,0.3,0,0.4c0,1.3-9.3,2.4-20.8,2.4s-20.8-1.1-20.8-2.4
			c0-0.1,0.1-0.3,0-0.4c0-0.3,0-0.5,0-0.8c0-6.6,9.3-11.9,20.8-11.9S866.1,503.1,866.1,509.7z"/>
		<path class="st66" d="M886.9,503.1c0,0.1,0,0.1,0,0.2c0,0,0,0.1,0,0.1c0,0.4-1.9,0.6-4.2,0.6s-4.2-0.3-4.2-0.6c0,0,0-0.1,0-0.1
			c0-0.1,0-0.1,0-0.2c0-1.8,1.9-3.2,4.2-3.2S886.9,501.3,886.9,503.1z"/>
		<path class="st66" d="M824.5,515.6c0,0.1,0,0.1,0,0.2c0,0,0,0.1,0,0.1c0,0.4-2.8,0.6-6.2,0.6c-3.4,0-6.2-0.3-6.2-0.6
			c0,0,0-0.1,0-0.1c0-0.1,0-0.1,0-0.2c0-1.8,2.8-3.2,6.2-3.2C821.8,512.4,824.5,513.8,824.5,515.6z"/>
		<path class="st66" d="M805.8,490.6c0,0.1,0,0.1,0,0.2c0,0,0,0.1,0,0.1c0,0.4-1.9,0.6-4.2,0.6c-2.3,0-4.2-0.3-4.2-0.6
			c0,0,0-0.1,0-0.1c0-0.1,0-0.1,0-0.2c0-1.8,1.9-3.2,4.2-3.2C804,487.4,805.8,488.8,805.8,490.6z"/>
		<path class="st66" d="M830.8,521.8c0,0.1,0,0.1,0,0.2c0,0,0,0.1,0,0.1c0,0.4-1.9,0.6-4.2,0.6c-2.3,0-4.2-0.3-4.2-0.6
			c0,0,0-0.1,0-0.1c0-0.1,0-0.1,0-0.2c0-1.8,1.9-3.2,4.2-3.2C828.9,518.6,830.8,520,830.8,521.8z"/>
		<path class="st66" d="M882.7,523.9c0,0.1,0,0.1,0,0.2c0,0,0,0.1,0,0.1c0,0.4-2.8,0.6-6.2,0.6c-3.4,0-6.2-0.3-6.2-0.6
			c0,0,0-0.1,0-0.1c0-0.1,0-0.1,0-0.2c0-1.8,2.8-3.2,6.2-3.2C879.9,520.7,882.7,522.1,882.7,523.9z"/>
		<path class="st66" d="M818.3,523.4c0,0.1,0,0.2,0,0.3c0,0.1,0,0.1,0,0.2c0,0.5-5.1,1-11.4,1c-6.3,0-11.4-0.4-11.4-1
			c0-0.1,0-0.1,0-0.2c0-0.1,0-0.2,0-0.3c0-2.6,5.1-4.8,11.4-4.8C813.2,518.6,818.3,520.7,818.3,523.4z"/>
		<path class="st66" d="M874.4,493.8c0,0.1,0,0.3,0,0.4c0,0.1,0,0.1,0,0.2c0,0.7-3.7,1.3-8.3,1.3c-4.6,0-8.3-0.6-8.3-1.3
			c0-0.1,0-0.1,0-0.2c0-0.1,0-0.3,0-0.4c0-3.5,3.7-6.4,8.3-6.4C870.7,487.4,874.4,490.3,874.4,493.8z"/>
		<path class="st67" d="M8.4,590c0,0.1,0,0.1,0,0.2c0,0,0,0.1,0,0.1c0,0.4,2.8,0.6,6.2,0.6c3.4,0,6.2-0.3,6.2-0.6c0,0,0-0.1,0-0.1
			c0-0.1,0-0.1,0-0.2c0-1.8-2.8-3.2-6.2-3.2C11.2,586.9,8.4,588.3,8.4,590z"/>
		<path class="st67" d="M23,587.1c0,0.1,0,0.1,0,0.2c0,0,0,0.1,0,0.1c0,0.4,1.9,0.6,4.2,0.6c2.3,0,4.2-0.3,4.2-0.6c0,0,0-0.1,0-0.1
			c0-0.1,0-0.1,0-0.2c0-1.8-1.9-3.2-4.2-3.2C24.9,583.9,23,585.3,23,587.1z"/>
		<path class="st67" d="M85.3,599.6c0,0.1,0,0.1,0,0.2c0,0,0,0.1,0,0.1c0,0.4,2.8,0.6,6.2,0.6c3.4,0,6.2-0.3,6.2-0.6
			c0,0,0-0.1,0-0.1c0-0.1,0-0.1,0-0.2c0-1.8-2.8-3.2-6.2-3.2C88.1,596.4,85.3,597.8,85.3,599.6z"/>
		<path class="st67" d="M104.1,574.6c0,0.1,0,0.1,0,0.2c0,0,0,0.1,0,0.1c0,0.4,1.9,0.6,4.2,0.6c2.3,0,4.2-0.3,4.2-0.6
			c0,0,0-0.1,0-0.1c0-0.1,0-0.1,0-0.2c0-1.8-1.9-3.2-4.2-3.2C105.9,571.4,104.1,572.8,104.1,574.6z"/>
		<path class="st67" d="M79.1,605.8c0,0.1,0,0.1,0,0.2c0,0,0,0.1,0,0.1c0,0.4,1.9,0.6,4.2,0.6c2.3,0,4.2-0.3,4.2-0.6
			c0,0,0-0.1,0-0.1c0-0.1,0-0.1,0-0.2c0-1.8-1.9-3.2-4.2-3.2C81,602.6,79.1,604,79.1,605.8z"/>
		<path class="st67" d="M27.2,607.9c0,0.1,0,0.1,0,0.2c0,0,0,0.1,0,0.1c0,0.4,2.8,0.6,6.2,0.6s6.2-0.3,6.2-0.6c0,0,0-0.1,0-0.1
			c0-0.1,0-0.1,0-0.2c0-1.8-2.8-3.2-6.2-3.2S27.2,606.1,27.2,607.9z"/>
		<path class="st67" d="M91.6,607.4c0,0.1,0,0.2,0,0.3c0,0.1,0,0.1,0,0.2c0,0.5,5.1,1,11.4,1c6.3,0,11.4-0.4,11.4-1
			c0-0.1,0-0.1,0-0.2c0-0.1,0-0.2,0-0.3c0-2.6-5.1-4.8-11.4-4.8C96.7,602.6,91.6,604.7,91.6,607.4z"/>
		<path class="st67" d="M35.5,577.8c0,0.1,0,0.3,0,0.4c0,0.1,0,0.1,0,0.2c0,0.7,3.7,1.3,8.3,1.3c4.6,0,8.3-0.6,8.3-1.3
			c0-0.1,0-0.1,0-0.2c0-0.1,0-0.3,0-0.4c0-3.5-3.7-6.4-8.3-6.4C39.2,571.4,35.5,574.3,35.5,577.8z"/>
		<circle class="st68" cx="693.5" cy="58.4" r="49"/>
		<circle class="st69" cx="693.5" cy="53.4" r="33"/>
		<circle class="st70" cx="693.5" cy="48.4" r="25"/>
		
			<linearGradient id="SVGID_37_" gradientUnits="userSpaceOnUse" x1="796.4454" y1="5836.4116" x2="796.4454" y2="5708.9116" gradientTransform="matrix(1 0 0 -1 0 6006.8232)">
			<stop  offset="0" style="stop-color:#8B4E4E"/>
			<stop  offset="1" style="stop-color:#ABB8DF"/>
		</linearGradient>
		<path style="fill:none;stroke:url(#SVGID_37_);stroke-width:5;" d="M797,170.4v43.1c0,0-16.5,3.5-13,12.3c1.6,4.1,23,6.2,24.7,7.9
			s0,9.7,0,14.9c0,5.3,0,23.7,0,23.7"/>
		
			<linearGradient id="SVGID_38_" gradientUnits="userSpaceOnUse" x1="809.4453" y1="5831.4116" x2="809.4453" y2="5705.0957" gradientTransform="matrix(1 0 0 -1 0 6006.8232)">
			<stop  offset="0" style="stop-color:#8B4E4E"/>
			<stop  offset="1" style="stop-color:#ABB8DF"/>
		</linearGradient>
		<path class="st71" d="M808.6,175.4v44.9c0,0,12.8,2.8,14.6,9.3c3.3,12.1-27.8,13.9-27.8,13.9v9.6v28.4"/>
		<g>
			
				<linearGradient id="SVGID_39_" gradientUnits="userSpaceOnUse" x1="268.0258" y1="5775.8867" x2="228.0257" y2="5734.3867" gradientTransform="matrix(1 0 0 -1 0 6006.8232)">
				<stop  offset="0" style="stop-color:#B0BBD8"/>
				<stop  offset="1" style="stop-color:#B0BBD8;stop-opacity:0"/>
			</linearGradient>
			<path style="fill:url(#SVGID_39_);fill-opacity:0.5;" d="M346.4,228.4l-22.5-5l-182,59.5l44,17L346.4,228.4z"/>
		</g>
		
			<linearGradient id="SVGID_40_" gradientUnits="userSpaceOnUse" x1="354.0209" y1="5834.7666" x2="298.5209" y2="5827.7666" gradientTransform="matrix(1 0 0 -1 0 6006.8232)">
			<stop  offset="0" style="stop-color:#EFE1CC"/>
			<stop  offset="1" style="stop-color:#C18B79"/>
		</linearGradient>
		<path style="fill:url(#SVGID_40_);" d="M318.4,169.7c0-6,6-4,6-4l2,18.5l-8,3V169.7z"/>
		
			<linearGradient id="SVGID_41_" gradientUnits="userSpaceOnUse" x1="354.5233" y1="5830.7832" x2="299.0233" y2="5823.7832" gradientTransform="matrix(1 0 0 -1 0 6006.8232)">
			<stop  offset="0" style="stop-color:#EFE1CC"/>
			<stop  offset="1" style="stop-color:#C18B79"/>
		</linearGradient>
		<path class="st74" d="M354.4,169.7c0-6-6-4-6-4l-2,18.5l8,3V169.7z"/>
		
			<linearGradient id="SVGID_42_" gradientUnits="userSpaceOnUse" x1="297.0868" y1="5860.6016" x2="409.0868" y2="5850.1016" gradientTransform="matrix(1 0 0 -1 0 6006.8232)">
			<stop  offset="0" style="stop-color:#C9A280"/>
			<stop  offset="1" style="stop-color:#F9E6D4"/>
		</linearGradient>
		<path class="st75" d="M324.4,74.4c0-2.8,2.2-5,5-5h14c2.8,0,5,2.2,5,5v35.9c0,0.8-0.3,1.6-0.8,2.3c-1,1.3-1,3.1-0.1,4.4l0.1,0.1
			c0.5,0.7,0.8,1.5,0.8,2.3v106c0,2.8-2.2,5-5,5h-14c-2.8,0-5-2.2-5-5V119.5c0-0.9,0.4-1.7,1-2.4l0.1-0.1c1.3-1.3,1.2-3.3-0.1-4.6
			c-0.6-0.6-1-1.4-1-2.3V74.4z"/>
		
			<linearGradient id="SVGID_43_" gradientUnits="userSpaceOnUse" x1="326.4914" y1="5951.3271" x2="355.9063" y2="5940.5654" gradientTransform="matrix(1 0 0 -1 0 6006.8232)">
			<stop  offset="0" style="stop-color:#D2B091"/>
			<stop  offset="1" style="stop-color:#E0CBB7"/>
		</linearGradient>
		<path class="st76" d="M332.4,44.5c-0.1-3.5,4.4-5.1,4.4-5.1v30.3h-6.6c0,0,3.5-3.2,0.9-4.7c-3-1.6-8,3.1-8,3.1s-0.1,0.2-0.5,1.6
			c-0.5,1.6-4,2.7-4,2.7s-2.3-12.7,0-18.8c1.9-5,2.1-7.9,6.3-6.2c2.1,0.9,1.8,1,3.9,2.2c2.3,1.3,4.7,0,4.7,0S332.5,47.3,332.4,44.5z
			"/>
		
			<linearGradient id="SVGID_44_" gradientUnits="userSpaceOnUse" x1="327.9995" y1="5955.4492" x2="357.4145" y2="5944.6875" gradientTransform="matrix(1 0 0 -1 0 6006.8232)">
			<stop  offset="0" style="stop-color:#D2B091"/>
			<stop  offset="1" style="stop-color:#E0CBB7"/>
		</linearGradient>
		<path class="st77" d="M340.8,44.5c0.1-3.5-4-5.1-4-5.1v30.3h6.6c0,0-3.5-3.2-0.9-4.7c3-1.6,8,3.1,8,3.1s0,0,0.5,1.6
			c0.5,1.6,4.4,2.7,4.4,2.7s2.3-12.7,0-18.8c-1.9-5-2.2-7.9-6.3-6.2c-2.1,0.9-2.1,1-4.2,2.2c-2.3,1.3-4.7,0-4.7,0
			S340.7,47.3,340.8,44.5z"/>
		
			<linearGradient id="SVGID_45_" gradientUnits="userSpaceOnUse" x1="329.944" y1="5871.4116" x2="329.944" y2="5849.4116" gradientTransform="matrix(1 0 0 -1 0 6006.8232)">
			<stop  offset="0" style="stop-color:#CD9A8A"/>
			<stop  offset="1" style="stop-color:#C29898;stop-opacity:0"/>
		</linearGradient>
		<path class="st78" d="M324.4,157.4v-22c8.2,7.4,10.8,12.2,11,22H324.4z"/>
		
			<linearGradient id="SVGID_46_" gradientUnits="userSpaceOnUse" x1="341.944" y1="5871.4116" x2="341.944" y2="5849.4116" gradientTransform="matrix(1 0 0 -1 0 6006.8232)">
			<stop  offset="0" style="stop-color:#CD9A8A"/>
			<stop  offset="1" style="stop-color:#C29898;stop-opacity:0"/>
		</linearGradient>
		<path class="st79" d="M347.4,157.4v-22c-8.2,7.4-10.8,12.2-11,22H347.4z"/>
		
			<linearGradient id="SVGID_47_" gradientUnits="userSpaceOnUse" x1="336.694" y1="5899.4116" x2="336.694" y2="5891.4116" gradientTransform="matrix(1 0 0 -1 0 6006.8232)">
			<stop  offset="0" style="stop-color:#BF8977"/>
			<stop  offset="1" style="stop-color:#BF8977;stop-opacity:0"/>
		</linearGradient>
		<path class="st80" d="M326.4,111.4l1.5,4h17.5l1.5-4l-10.5-4L326.4,111.4z"/>
		<path class="st82" d="M326.4,167.4v-3c7.7,1.8,12.1,1.8,20,0v3C338.7,168.8,334.4,168.7,326.4,167.4z"/>
		<path class="st83" d="M344.4,114l-3-5V73.9l-2-4.5c0,0,6,0,7.5,1.5c1.8,1.8,1.5,4.5,1.5,4.5V109l-2,6l2,7v95.3c0,0,0,9-1,11
			s-4.5,2-4.5,2v-37.6v-22.1l-3-2l3-0.5l2.5-2l-2.5-1v-20.6v-26.6l-3.5-3L344.4,114z"/>
	</g>
</g>
</svg>
