<?xml version="1.0" encoding="utf-8"?>
<!-- Generator: Adobe Illustrator 23.0.2, SVG Export Plug-In . SVG Version: 6.00 Build 0)  -->
<svg version="1.1" id="Layer_1" xmlns="http://www.w3.org/2000/svg" xmlns:xlink="http://www.w3.org/1999/xlink" x="0px" y="0px"
	 viewBox="0 0 375.1 342.7" style="enable-background:new 0 0 375.1 342.7;" xml:space="preserve">
<style type="text/css">
	.st0{clip-path:url(#SVGID_2_);}
	.st1{fill:url(#SVGID_3_);}
	.st2{opacity:0.3;}
	.st3{fill:#7C91C3;}
	.st4{fill:url(#SVGID_4_);}
	.st5{opacity:0.8;}
	.st6{fill:url(#SVGID_5_);}
	.st7{fill:#AB95AE;}
	.st8{fill:url(#SVGID_6_);}
	.st9{fill:url(#SVGID_7_);}
	.st10{fill:url(#SVGID_8_);}
	.st11{fill:url(#SVGID_9_);}
	.st12{opacity:0.7;}
	.st13{fill:url(#SVGID_10_);}
	.st14{fill:url(#SVGID_11_);}
	.st15{fill:url(#SVGID_12_);}
	.st16{fill:none;}
	.st17{fill:url(#SVGID_13_);fill-opacity:0.5;}
	.st18{fill:url(#SVGID_14_);}
	.st19{fill:url(#SVGID_15_);}
	.st20{fill:url(#SVGID_16_);}
	.st21{fill:url(#SVGID_17_);}
	.st22{fill:url(#SVGID_18_);}
	.st23{fill:url(#SVGID_19_);}
	.st24{fill:url(#SVGID_20_);}
	.st25{fill:url(#SVGID_21_);}
	.st26{fill:#CE9E8E;}
	.st27{fill:#EFE1CC;fill-opacity:0.8;}
	.st28{fill:#9DAAD5;fill-opacity:0.3;}
	.st29{fill:url(#SVGID_22_);}
	.st30{fill:url(#SVGID_23_);}
	.st31{fill:#D28989;}
	.st32{fill:#C29393;}
	.st33{fill:#E2E3EF;}
	.st34{fill:#C18989;}
	.st35{fill:#71BFD8;}
	.st36{fill:url(#SVGID_24_);}
	.st37{fill:url(#SVGID_25_);}
	.st38{fill:#E2EDEF;fill-opacity:0.7;}
	.st39{fill:#DD9E9E;}
	.st40{fill:url(#SVGID_26_);}
</style>
<g>
	<defs>
		<rect id="SVGID_1_" y="-0.1" width="375.1" height="342.9"/>
	</defs>
	<clipPath id="SVGID_2_">
		<use xlink:href="#SVGID_1_"  style="overflow:visible;"/>
	</clipPath>
	<g class="st0">
		
			<linearGradient id="SVGID_3_" gradientUnits="userSpaceOnUse" x1="82.542" y1="724.83" x2="82.542" y2="153.245" gradientTransform="matrix(1 0 0 -1 0 713.72)">
			<stop  offset="0" style="stop-color:#ABD8EC"/>
			<stop  offset="0.8229" style="stop-color:#F7EDED"/>
		</linearGradient>
		<rect x="-478.3" y="-11.1" class="st1" width="1121.7" height="691"/>
		<g class="st2">
			<path class="st3" d="M362.4,186.2l-238.9-86l-46.8,14.6l-50.9,20.9l-17.8,1.3l-142.4,49.1H362.4z"/>
			
				<linearGradient id="SVGID_4_" gradientUnits="userSpaceOnUse" x1="247.3953" y1="524.0608" x2="237.7743" y2="624.5067" gradientTransform="matrix(1 0 0 -1 0 713.72)">
				<stop  offset="0.6198" style="stop-color:#B5A2B8"/>
				<stop  offset="1" style="stop-color:#FFFFFF"/>
			</linearGradient>
			<path class="st4" d="M138.6,122l12.9,2.1c0,0-11.1-7.2-16.6-11.9c-5.5-4.7-11.4-12-11.4-12l238.9,86
				c-34.3-1.5-60.9-13.5-101.3-21.4c-16.8-3.3-64.8-20.8-59.2-16.6c5.6,4.3,16.9,12.2,30.7,19.4c14.6,7.6,42.4,18.5,42.4,18.5h-33.6
				C197.8,161.5,176.5,147.2,138.6,122z"/>
		</g>
		<g class="st5">
			<path class="st3" d="M172.8,179.3l46-48.2l9,8.2l9.8,11.7l3.4,0.7l27.5,27.5H172.8z"/>
			
				<linearGradient id="SVGID_5_" gradientUnits="userSpaceOnUse" x1="189.2154" y1="534.0776" x2="203.9014" y2="586.8096" gradientTransform="matrix(1 0 0 -1 0 713.72)">
				<stop  offset="0.6198" style="stop-color:#B5A2B8"/>
				<stop  offset="1" style="stop-color:#FFFFFF"/>
			</linearGradient>
			<path class="st6" d="M215.9,143.3l-2.5,1.2c0,0,2.1-4.1,3.2-6.7c1.1-2.6,2.2-6.7,2.2-6.7l-46,48.2c6.6-0.8,11.7-7.6,19.5-12
				c3.2-1.8,12.5-11.7,11.4-9.3c-1.1,2.4-3.3,6.8-5.9,10.9c-2.8,4.3-8.2,10.4-8.2,10.4h6.5C204.5,165.5,208.6,157.5,215.9,143.3z"/>
			<path class="st7" d="M245,227c11.2-17.2,16.4-27.2,22.6-45.8c0,0-1.8,21.6-5.2,25.5C258.9,210.6,245,227,245,227z"/>
		</g>
		<g class="st5">
			<path class="st3" d="M254.1,186.2l97-97.5l19,16.6l20.7,23.7l7.2,1.5l57.8,55.7H254.1z"/>
			
				<linearGradient id="SVGID_6_" gradientUnits="userSpaceOnUse" x1="289.5881" y1="526.6027" x2="318.2801" y2="633.8717" gradientTransform="matrix(1 0 0 -1 0 713.72)">
				<stop  offset="0.6198" style="stop-color:#B5A2B8"/>
				<stop  offset="1" style="stop-color:#FFFFFF"/>
			</linearGradient>
			<path class="st8" d="M345,113.5l-5.2,2.3c0,0,4.5-8.2,6.7-13.5c2.2-5.3,4.6-13.6,4.6-13.6l-97,97.5c13.9-1.7,24.7-15.3,41.1-24.3
				c6.8-3.7,26.3-23.6,24-18.8c-2.3,4.8-6.8,13.8-12.5,22c-5.9,8.7-17.2,21-17.2,21h13.6C321,158.2,329.6,142,345,113.5z"/>
		</g>
		<g class="st2">
			<path class="st3" d="M-328.6,164.9l213.8-84.6L-73,94.6l45.5,20.6l15.9,1.3l127.5,48.4H-328.6z"/>
		</g>
		<g>
			
				<linearGradient id="SVGID_7_" gradientUnits="userSpaceOnUse" x1="163.9219" y1="744.6298" x2="194.3779" y2="587.9492" gradientTransform="matrix(1 0 0 -1 0 713.72)">
				<stop  offset="0.4688" style="stop-color:#C4C4C4;stop-opacity:0"/>
				<stop  offset="1" style="stop-color:#D0D9E3"/>
			</linearGradient>
			<path class="st9" d="M239.5,97.1c-287,64.4-483.2-48.8-483.2-48.8L461-11.1h129.7C590.8-11.1,526.6,32.7,239.5,97.1z"/>
		</g>
		<g>
			
				<linearGradient id="SVGID_8_" gradientUnits="userSpaceOnUse" x1="43.9958" y1="709.2318" x2="13.5402" y2="552.5516" gradientTransform="matrix(1 0 0 -1 0 713.72)">
				<stop  offset="0.4688" style="stop-color:#C4C4C4;stop-opacity:0"/>
				<stop  offset="1" style="stop-color:#D0D9E3"/>
			</linearGradient>
			<path class="st10" d="M-92.9,134.4c287,64.4,548-50,548-50L-249.6,25L-381.2-3C-381.2-3-379.9,70-92.9,134.4z"/>
		</g>
		<g>
			
				<linearGradient id="SVGID_9_" gradientUnits="userSpaceOnUse" x1="403.6327" y1="722.2385" x2="179.4547" y2="641.2426" gradientTransform="matrix(1 0 0 -1 0 713.72)">
				<stop  offset="0" style="stop-color:#E2EFF4"/>
				<stop  offset="1" style="stop-color:#EEF5F5"/>
			</linearGradient>
			<path class="st11" d="M355.5,5c17.1-12,18-16.1,18-16.1h63c0,0-88.1,37.2-137.8,53.7C241.8,61.5,164.3,76,164.3,76
				S298.7,44.9,355.5,5z"/>
		</g>
		<g class="st12">
			
				<linearGradient id="SVGID_10_" gradientUnits="userSpaceOnUse" x1="521.2941" y1="733.556" x2="214.3141" y2="502.6743" gradientTransform="matrix(1 0 0 -1 0 713.72)">
				<stop  offset="0" style="stop-color:#B8DAEA"/>
				<stop  offset="1" style="stop-color:#F0E3E5"/>
			</linearGradient>
			<path class="st13" d="M312.2,125.9c-16.1,19.8-146.4,48.8-146.4,48.8s91-13.5,146.4-29c51.5-14.5,80.2-24.1,126.7-46
				c61-28.8,140-90,140-90s-69.4,36.6-120.2,49.5c-25,6.3-53-8-65.6,11.9c-2.4,3.8-2.1,6.4-4.6,10.2c-11,16.6-38.6,15.1-56.9,27.6
				C318,118.2,321.8,114.2,312.2,125.9z"/>
		</g>
		
			<linearGradient id="SVGID_11_" gradientUnits="userSpaceOnUse" x1="80.2078" y1="588.476" x2="83.3558" y2="382.125" gradientTransform="matrix(1 0 0 -1 0 713.72)">
			<stop  offset="0" style="stop-color:#97ABDE"/>
			<stop  offset="1" style="stop-color:#EDEBED"/>
		</linearGradient>
		<path class="st14" d="M-423,173.5c-49.8,0-51.1-30.5-55.3-45.6v253h623.4H643V150.4c0,0-64.7-29.2-120.9-31.8
			c-90.8-4.2-135.2,54.4-226.1,55.7c-64.2,0.9-152.8-23.9-162.8-23.9c-10,0-65.3-17.9-108.1-18.2C-29.8,131.8-77.3,160-112.8,160
			c-85.4,0-129.4-43.7-175.4-43.7C-340,116.9-385.2,173.5-423,173.5z"/>
		
			<linearGradient id="SVGID_12_" gradientUnits="userSpaceOnUse" x1="78.4252" y1="861.928" x2="24.6632" y2="360.678" gradientTransform="matrix(1 0 0 -1 0 713.72)">
			<stop  offset="0" style="stop-color:#A7AFD9;stop-opacity:0"/>
			<stop  offset="1" style="stop-color:#FFFFFF"/>
		</linearGradient>
		<path class="st15" d="M54.3,178.7c-46.7-1.9-46.8,22-93.5,20.7c-18.8-0.5-47.8-5.3-47.8-5.3l-47.8-5.3L81.1,168
			c0,0,12.7-0.4,20.8,0c9.4,0.5,22.2,2.1,29.6,3.2c1.6,0.3,3.1,0.6,4.7,1c7.7,1.7,15.5,4,24.8,7.1c12.7,4.2,19.9,8.6,30.2,13.4
			c2.5,1.2,5.1,2.3,8.1,3.5c31.4,12.8,13.9,30.9-1.7,38.8c-15.6,7.9-73,24.3-89.3,25.9c-16.3,1.6-119.9,7.7-178.5,42.2
			c-39.2,23.1-46.1-42.2-46.1-42.2c16.2-4.4,13.4-15.3,46.1-24.1c48.7-13.1,113.4-19.4,172.2-19.4c17.7,0,37.9-9.8,41.8-21.2
			c0.7-1.9,0.6-4.4-0.2-7.6c-1.2-4.4-4.5-7.3-9.3-9.3C114,174.7,73.3,179.5,54.3,178.7z"/>
		<rect x="26.1" y="-0.1" class="st16" width="49" height="85.5"/>
		<g>
			
				<linearGradient id="SVGID_13_" gradientUnits="userSpaceOnUse" x1="58.7439" y1="560.3118" x2="41.7124" y2="542.6409" gradientTransform="matrix(1 0 0 -1 0 713.72)">
				<stop  offset="0" style="stop-color:#B0BBD8"/>
				<stop  offset="1" style="stop-color:#B0BBD8;stop-opacity:0"/>
			</linearGradient>
			<path class="st17" d="M92.1,152.3l-9.6-2.1L5.1,175.5l18.7,7.2L92.1,152.3z"/>
		</g>
		
			<linearGradient id="SVGID_14_" gradientUnits="userSpaceOnUse" x1="95.3595" y1="585.3824" x2="71.7283" y2="582.4014" gradientTransform="matrix(1 0 0 -1 0 713.72)">
			<stop  offset="0" style="stop-color:#EFE1CC"/>
			<stop  offset="1" style="stop-color:#C18B79"/>
		</linearGradient>
		<path class="st18" d="M80.2,127.3c0-2.6,2.6-1.7,2.6-1.7l0.9,7.9l-3.4,1.3V127.3z"/>
		
			<linearGradient id="SVGID_15_" gradientUnits="userSpaceOnUse" x1="95.5735" y1="583.6862" x2="71.9423" y2="580.7052" gradientTransform="matrix(1 0 0 -1 0 713.72)">
			<stop  offset="0" style="stop-color:#EFE1CC"/>
			<stop  offset="1" style="stop-color:#C18B79"/>
		</linearGradient>
		<path class="st19" d="M95.5,127.3c0-2.6-2.6-1.7-2.6-1.7l-0.9,7.9l3.4,1.3V127.3z"/>
		
			<linearGradient id="SVGID_16_" gradientUnits="userSpaceOnUse" x1="71.1177" y1="596.3819" x2="118.8062" y2="591.9109" gradientTransform="matrix(1 0 0 -1 0 713.72)">
			<stop  offset="0" style="stop-color:#C9A280"/>
			<stop  offset="1" style="stop-color:#F9E6D4"/>
		</linearGradient>
		<path class="st20" d="M82.8,86.8c0-1.2,1-2.1,2.1-2.1h6c1.2,0,2.1,1,2.1,2.1V102c0,0.3-0.1,0.7-0.3,1c-0.4,0.6-0.4,1.3,0,1.9
			l0,0.1c0.2,0.3,0.3,0.6,0.3,1v45.1c0,1.2-1,2.1-2.1,2.1h-6c-1.2,0-2.1-1-2.1-2.1V106c0-0.4,0.1-0.7,0.4-1l0,0
			c0.5-0.5,0.5-1.4,0-1.9c-0.3-0.3-0.4-0.6-0.4-1V86.8z"/>
		
			<linearGradient id="SVGID_17_" gradientUnits="userSpaceOnUse" x1="83.6378" y1="635.0113" x2="96.1621" y2="630.4291" gradientTransform="matrix(1 0 0 -1 0 713.72)">
			<stop  offset="0" style="stop-color:#D2B091"/>
			<stop  offset="1" style="stop-color:#E0CBB7"/>
		</linearGradient>
		<path class="st21" d="M86.2,74c0-1.5,1.9-2.2,1.9-2.2v12.9h-2.8c0,0,1.5-1.4,0.4-2c-1.3-0.7-3.4,1.3-3.4,1.3s0,0.1-0.2,0.7
			c-0.2,0.7-1.7,1.1-1.7,1.1s-1-5.4,0-8c0.8-2.1,0.9-3.4,2.7-2.6c0.9,0.4,0.8,0.4,1.6,0.9c1,0.6,2,0,2,0S86.2,75.2,86.2,74z"/>
		
			<linearGradient id="SVGID_18_" gradientUnits="userSpaceOnUse" x1="84.28" y1="636.7665" x2="96.8043" y2="632.1844" gradientTransform="matrix(1 0 0 -1 0 713.72)">
			<stop  offset="0" style="stop-color:#D2B091"/>
			<stop  offset="1" style="stop-color:#E0CBB7"/>
		</linearGradient>
		<path class="st22" d="M89.7,74c0-1.5-1.7-2.2-1.7-2.2v12.9h2.8c0,0-1.5-1.4-0.4-2c1.3-0.7,3.4,1.3,3.4,1.3s0,0,0.2,0.7
			c0.2,0.7,1.9,1.1,1.9,1.1s1-5.4,0-8c-0.8-2.1-0.9-3.4-2.7-2.6c-0.9,0.4-0.9,0.4-1.8,0.9c-1,0.6-2,0-2,0S89.7,75.2,89.7,74z"/>
		
			<linearGradient id="SVGID_19_" gradientUnits="userSpaceOnUse" x1="85.1079" y1="600.985" x2="85.1079" y2="591.618" gradientTransform="matrix(1 0 0 -1 0 713.72)">
			<stop  offset="0" style="stop-color:#CD9A8A"/>
			<stop  offset="1" style="stop-color:#C29898;stop-opacity:0"/>
		</linearGradient>
		<path class="st23" d="M82.8,122.1v-9.4c3.5,3.2,4.6,5.2,4.7,9.4H82.8z"/>
		
			<linearGradient id="SVGID_20_" gradientUnits="userSpaceOnUse" x1="90.2172" y1="600.985" x2="90.2172" y2="591.618" gradientTransform="matrix(1 0 0 -1 0 713.72)">
			<stop  offset="0" style="stop-color:#CD9A8A"/>
			<stop  offset="1" style="stop-color:#C29898;stop-opacity:0"/>
		</linearGradient>
		<path class="st24" d="M92.6,122.1v-9.4c-3.5,3.2-4.6,5.2-4.7,9.4H92.6z"/>
		
			<linearGradient id="SVGID_21_" gradientUnits="userSpaceOnUse" x1="87.9819" y1="612.906" x2="87.9819" y2="609.5" gradientTransform="matrix(1 0 0 -1 0 713.72)">
			<stop  offset="0" style="stop-color:#BF8977"/>
			<stop  offset="1" style="stop-color:#BF8977;stop-opacity:0"/>
		</linearGradient>
		<path class="st25" d="M83.6,102.5l0.6,1.7h7.5l0.6-1.7l-4.5-1.7L83.6,102.5z"/>
		<path class="st26" d="M83.6,126.4v-1.3c3.3,0.8,5.1,0.8,8.5,0v1.3C88.9,126.9,87,126.9,83.6,126.4z"/>
		<path class="st27" d="M91.3,103.6l-1.3-2.1V86.6l-0.9-1.9c0,0,2.6,0,3.2,0.6c0.8,0.8,0.6,1.9,0.6,1.9v14.3l-0.9,2.6l0.9,3v40.6
			c0,0,0,3.8-0.4,4.7c-0.4,0.9-1.9,0.9-1.9,0.9v-16v-9.4l-1.3-0.9l1.3-0.2l1.1-0.9l-1.1-0.4v-8.8v-11.3l-1.5-1.3L91.3,103.6z"/>
		<g>
			<path class="st28" d="M330.2,193.6c-7.1,4.7-14.5,7.6-20.1,6.7c-11.9-2-24.8-8.1-36.9-13.7l42.2-11.5c0,0,9,5.1,14.8,10.5
				C336,191.1,332.8,191.9,330.2,193.6z"/>
		</g>
		
			<linearGradient id="SVGID_22_" gradientUnits="userSpaceOnUse" x1="300.0728" y1="548.866" x2="300.0728" y2="516.854" gradientTransform="matrix(1 0 0 -1 0 713.72)">
			<stop  offset="0" style="stop-color:#DEE2ED"/>
			<stop  offset="1" style="stop-color:#AEBADF"/>
		</linearGradient>
		<path class="st29" d="M273.4,186.6l17.7-29.4c0.1-0.1,0.2-0.2,0.3-0.2l8.7-3.1c0.1,0,0.2,0,0.3,0l10,3.1c0.1,0,0.2,0.1,0.3,0.2
			l16.1,29.4c0.2,0.3,0,0.6-0.3,0.7l-26.1,9.1c-0.1,0-0.2,0-0.3,0l-26.4-9.1C273.4,187.3,273.2,186.9,273.4,186.6z"/>
		
			<linearGradient id="SVGID_23_" gradientUnits="userSpaceOnUse" x1="311.1356" y1="536.1749" x2="288.8236" y2="539.0849" gradientTransform="matrix(1 0 0 -1 0 713.72)">
			<stop  offset="0" style="stop-color:#B0BBDF"/>
			<stop  offset="1" style="stop-color:#B0BBDF;stop-opacity:0"/>
		</linearGradient>
		<path class="st30" d="M300.5,196.5v-36.9l10-2.6l16.5,30.1L300.5,196.5z"/>
		<path class="st31" d="M297.2,165.1l-5.5-2l-12.5,21.3l18,5.9v-4.6l-12.5-3.5l3.4-5.9l6.3,1.8v-4l-4.5-1.4l3.4-5.5l3.9,1.3V165.1z"
			/>
		<path class="st32" d="M310.6,162.3l-5.9,1.6v26.4l18-6.5l-2.5-3.9l-11.2,3.9l-0.3-6.8l6-1.9l-2.1-3.3l-4.2,1.3l-0.1-6.5l3.8-1.1
			L310.6,162.3z"/>
		<g>
			<path class="st33" d="M402.8,204.6c-2.9-1.4-8.8-3.8-11.9-4.8c-6.4-2.2-7.5-3.5-13.7-4.1c-17.4-1.5-15.1,4.1-15.1,4.1
				s8.5,3,14.2,4.1C386.5,205.8,412.2,209.1,402.8,204.6z"/>
		</g>
		<g>
			<path class="st33" d="M381.8,193.4c-10.1-7.3-13.6-8.7-17.4-10.6c-6.1-3.1-10.5-3.7-16.8-4c-17.9-0.9-15.5,2.3-15.5,2.3
				s14.6,7.5,20.4,8.1C361.1,190.1,390.4,199.6,381.8,193.4z"/>
		</g>
		<path class="st34" d="M365.6,191.8h4.1v5c-1.6,0.6-2.5,0.6-4.1,0V191.8z"/>
		<path class="st35" d="M367.5,151.8c0.2-0.4,0.7-0.4,0.8,0l7.7,17.9c0.1,0.3-0.1,0.6-0.4,0.6h-1.6c-0.3,0-0.6,0.4-0.4,0.7l4.4,8.5
			c0.2,0.3-0.1,0.7-0.4,0.7h-2.3c-0.3,0-0.6,0.4-0.4,0.7l4.9,9.5c0.1,0.3,0,0.6-0.3,0.7c-9,1.3-14.3,1.3-23.3,0
			c-0.3,0-0.5-0.4-0.3-0.7l4.9-9.5c0.2-0.3-0.1-0.7-0.4-0.7h-2.3c-0.3,0-0.6-0.4-0.4-0.7l4.4-8.5c0.2-0.3-0.1-0.7-0.4-0.7h-1.6
			c-0.3,0-0.5-0.3-0.4-0.6L367.5,151.8z"/>
		
			<linearGradient id="SVGID_24_" gradientUnits="userSpaceOnUse" x1="374.4903" y1="522.107" x2="374.4903" y2="562.84" gradientTransform="matrix(1 0 0 -1 0 713.72)">
			<stop  offset="0" style="stop-color:#6975A5"/>
			<stop  offset="1" style="stop-color:#6975A5;stop-opacity:0"/>
		</linearGradient>
		<path class="st36" d="M374.2,191.6c-0.2,0-0.4-0.1-0.5-0.4l-2.4-10.8c0-0.2,0-0.3,0.2-0.4l1.6-1.3c0.2-0.1,0.2-0.3,0.1-0.5
			l-3.2-7.5c-0.1-0.2,0-0.4,0.1-0.5l1.6-1.8c0.1-0.1,0.1-0.3,0.1-0.4l-2.8-12.3c-0.1-0.5,0.6-0.8,0.9-0.3l6.2,14.3
			c0.1,0.3-0.1,0.6-0.4,0.6h-1.6c-0.3,0-0.6,0.4-0.4,0.7l4.4,8.5c0.2,0.3-0.1,0.7-0.4,0.7h-2.3c-0.3,0-0.6,0.4-0.4,0.7l4.9,9.5
			c0.1,0.3,0,0.6-0.4,0.7L374.2,191.6z"/>
		<path class="st35" d="M342.9,137c0.1-0.4,0.7-0.4,0.9,0l7.8,20.3c0.1,0.3-0.1,0.6-0.4,0.6h-1.7c-0.3,0-0.6,0.3-0.4,0.6l4.5,9.8
			c0.1,0.3-0.1,0.6-0.4,0.6h-2.4c-0.3,0-0.6,0.3-0.4,0.6l5,11c0.1,0.3,0,0.6-0.3,0.6c-9,1.5-14.4,1.5-23.4,0c-0.3,0-0.5-0.4-0.3-0.6
			l5-11c0.1-0.3-0.1-0.6-0.4-0.6h-2.4c-0.3,0-0.6-0.3-0.4-0.6l4.5-9.8c0.1-0.3-0.1-0.6-0.4-0.6h-1.7c-0.3,0-0.5-0.3-0.4-0.6
			L342.9,137z"/>
		
			<linearGradient id="SVGID_25_" gradientUnits="userSpaceOnUse" x1="349.9247" y1="531.892" x2="349.9247" y2="577.86" gradientTransform="matrix(1 0 0 -1 0 713.72)">
			<stop  offset="0" style="stop-color:#6975A5"/>
			<stop  offset="1" style="stop-color:#6975A5;stop-opacity:0"/>
		</linearGradient>
		<path class="st37" d="M349.7,182c-0.2,0-0.5-0.1-0.5-0.4l-2.4-12.3c0-0.2,0-0.3,0.1-0.4l1.7-1.6c0.1-0.1,0.2-0.3,0.1-0.5l-3.2-8.6
			c-0.1-0.1,0-0.3,0.1-0.4l1.7-2.1c0.1-0.1,0.1-0.2,0.1-0.4l-2.8-14.1c-0.1-0.5,0.7-0.8,0.9-0.3l6.2,16.4c0.1,0.3-0.1,0.6-0.4,0.6
			h-1.7c-0.3,0-0.6,0.3-0.4,0.6l4.5,9.8c0.1,0.3-0.1,0.6-0.4,0.6h-2.4c-0.3,0-0.6,0.3-0.4,0.6l5,10.9c0.1,0.3,0,0.6-0.4,0.6
			L349.7,182z"/>
		<g>
			<path class="st38" d="M-19.3,237.9c3.9-1.8,11.7-5,15.7-6.4c8.5-2.9,9.9-4.7,18.2-5.4c23-2,20,5.4,20,5.4s-11.3,3.9-18.8,5.4
				C2.3,239.5-31.7,243.8-19.3,237.9z"/>
		</g>
		<path class="st39" d="M23.5,224.3h7.1v5.8c-2.8,0.8-4.4,0.7-7.1,0V224.3z"/>
		<path class="st35" d="M26.7,156c0.2-0.5,0.9-0.5,1.1,0l14.1,31.3c0.2,0.4-0.1,0.8-0.5,0.8h-3.5c-0.4,0-0.7,0.5-0.5,0.9l8.1,15
			c0.2,0.4-0.1,0.9-0.5,0.9h-4.8c-0.4,0-0.7,0.5-0.5,0.9l9.1,16.7c0.2,0.3,0,0.8-0.4,0.8c-16.6,3.5-26.1,3.6-42.1,0
			c-0.4-0.1-0.6-0.5-0.4-0.8l9.1-16.8c0.2-0.4-0.1-0.9-0.5-0.9H9.5c-0.4,0-0.7-0.5-0.5-0.9l8.1-15c0.2-0.4-0.1-0.9-0.5-0.9h-3.5
			c-0.4,0-0.7-0.4-0.5-0.8L26.7,156z"/>
		
			<linearGradient id="SVGID_26_" gradientUnits="userSpaceOnUse" x1="15.9929" y1="489.2221" x2="15.9929" y2="558.8871" gradientTransform="matrix(1 0 0 -1 0 713.72)">
			<stop  offset="0" style="stop-color:#6975A5"/>
			<stop  offset="1" style="stop-color:#6975A5;stop-opacity:0"/>
		</linearGradient>
		<path class="st40" d="M15,224.5c0.1,0,0.3-0.1,0.3-0.2l5.8-19.3c0-0.1,0-0.2-0.1-0.3l-3.3-2.7c-0.1-0.1-0.1-0.2-0.1-0.3l5.9-13.4
			c0-0.1,0-0.2-0.1-0.3l-3.2-3.4c-0.1-0.1-0.1-0.2-0.1-0.3l6.2-26.5c0.1-0.3-0.4-0.5-0.5-0.2l-13.5,30.1c-0.1,0.2,0.1,0.4,0.3,0.4
			h4.5c0.2,0,0.4,0.2,0.3,0.4l-8.6,15.9c-0.1,0.2,0,0.4,0.3,0.4h5.8c0.2,0,0.4,0.2,0.3,0.4l-9.5,17.5c-0.1,0.2,0,0.4,0.2,0.4
			L15,224.5z"/>
	</g>
</g>
</svg>
